<svg width="73" height="67" viewBox="0 0 73 67" fill="none" xmlns="http://www.w3.org/2000/svg">
<path d="M46.2321 1.06201H72.2596V33.6595L65.6895 56.9073L57.477 65.4988L1 55.1384V5.98953H22.0999V9.1482H46.2321V1.06201Z" stroke="#C9C9C9"/>
<path d="M59.4981 32.7762H49.1377V27.7223H52.6754V18.12H59.4981V1H72.2591V27.7223H59.4981V32.7762Z" fill="#1C1C1C" stroke="#1C1C1C"/>
<path d="M59.4988 33.5631V38.6513H55.3926V43.1997H59.4988V47.8114H68.2799" stroke="#C9C9C9"/>
<path d="M54.7602 38.841H50.0853V50.2122H46.2949V63.3522" stroke="#C9C9C9"/>
<path d="M42.0619 9.40192V24.3837H38.2715V32.7761H48.5062" stroke="#C9C9C9"/>
<path d="M25.3857 9.02307V24.4374H38.1468" stroke="#C9C9C9"/>
<path d="M29.8061 24.4374V33.6738H15.6553V57.9193" stroke="#C9C9C9"/>
<path d="M25.4492 34.2924V39.4726H46.7386V49.833" stroke="#C9C9C9"/>
</svg>
