<svg width="112" height="46" viewBox="0 0 112 46" fill="none"
    xmlns="http://www.w3.org/2000/svg">
    <g clip-path="url(#clip0)">
        <path d="M26.7656 42.0896C26.7656 40.0179 28.2413 38.1637 30.4725 38.1637C31.4841 38.1202 32.4725 38.4808 33.229 39.1693L32.6889 39.8186C32.0804 39.2377 31.2718 38.9271 30.44 38.9549C28.805 38.9549 27.6333 40.3682 27.6333 42.0745C27.6333 43.8865 28.7607 45.2183 30.5551 45.2183C31.3288 45.217 32.0798 44.9513 32.6889 44.4633V42.5849H30.44V41.8178H33.4917V44.8378C32.6772 45.5758 31.6283 45.9858 30.5404 45.9914C28.2029 46.0005 26.7656 44.273 26.7656 42.0896Z" fill="white"/>
        <path d="M39.6865 38.2539H40.4657L43.8361 45.8702H42.9507L42.083 43.8741H38.0485L37.1631 45.8702H36.3102L39.6865 38.2539ZM41.7524 43.107L40.0643 39.2596L38.3673 43.107H41.7524Z" fill="white"/>
        <path d="M46.873 38.3086H47.7053V45.0824H51.8667V45.8706H46.873V38.3086Z" fill="white"/>
        <path d="M54.9891 38.3086H55.8214V45.0824H59.9828V45.8706H54.9891V38.3086Z" fill="white"/>
        <path d="M63.1053 38.3086H68.4472V39.0877H63.9376V41.6758H67.9721V42.452H63.9376V45.1005H68.5004V45.8766H63.1053V38.3086Z" fill="white"/>
        <path d="M71.7587 38.3082H74.9373C75.319 38.2867 75.7012 38.3427 76.0618 38.4728C76.4224 38.6028 76.7544 38.8045 77.0386 39.0662C77.2266 39.2667 77.3738 39.5034 77.4716 39.7626C77.5694 40.0219 77.6158 40.2984 77.6082 40.5762C77.6082 41.8294 76.7641 42.5633 75.6013 42.7777L77.8738 45.8671H76.8497L74.7041 42.9287H72.6027V45.8671H71.7675L71.7587 38.3082ZM74.8635 42.1647C75.9732 42.1647 76.7641 41.5818 76.7641 40.5882C76.7641 39.6611 76.0676 39.0994 74.8753 39.0994H72.6027V42.1647H74.8635Z" fill="white"/>
        <path d="M83.0208 42.8837L79.9485 38.3145H80.9637L83.4547 42.0954L85.9662 38.3145H86.9372L83.8649 42.8837V45.8855H83.0208V42.8837Z" fill="white"/>
        <path d="M6.05613 13.8919L13.8034 24.2715H11.0704L4.57751 15.6314L2.30499 18.292V24.2715H0V4.79883H2.30499V14.7979L10.8284 4.79883H13.8034L6.05613 13.8919Z" fill="white"/>
        <path d="M26.6947 17.7424H22.5127V24.2715H20.2343V4.79883H27.0223C30.2688 4.79883 33.2408 7.23895 33.2408 11.2706C33.2408 14.4234 31.4168 16.5918 29.0853 17.4132L33.3736 24.2715H30.7469L26.6947 17.7424ZM22.5127 15.5227H27.0164C29.106 15.5227 30.9564 13.9312 30.9564 11.2706C30.9564 8.61001 29.106 7.0185 27.0164 7.0185H22.5127V15.5227Z" fill="white"/>
        <path d="M51.3236 19.4698H43.1484L41.4602 24.2715H39.0756L45.9374 4.79883H48.5346L55.3964 24.2715H53.0117L51.3236 19.4698ZM50.5179 17.2501L47.2212 7.87012L43.9246 17.2501H50.5179Z" fill="white"/>
        <path d="M67.9662 24.5467C63.489 24.5467 60.5879 21.9676 60.5879 16.2629V4.78711H62.8634V16.2629C62.8634 20.6509 64.9027 22.324 67.9574 22.324C71.012 22.324 73.0514 20.6509 73.0514 16.2629V4.78711H75.3534V16.2629C75.3623 21.9676 72.4699 24.5467 67.9662 24.5467Z" fill="white"/>
        <path d="M84.4729 18.8412C84.6353 21.1997 86.4297 22.3232 88.2801 22.3232C90.4789 22.3232 91.8217 21.1424 91.8217 19.5267C91.8217 17.4671 89.9978 16.4795 87.7194 15.2987C84.3696 13.4626 82.5752 12.2003 82.5752 9.29204C82.5752 6.46838 84.9865 4.52051 87.988 4.52051C91.1252 4.52051 93.2679 6.90627 93.4302 9.84167H91.1252C90.9629 8.0297 89.7293 6.74018 87.988 6.74018C86.2467 6.74018 84.8802 7.81226 84.8802 9.40076C84.8802 11.4332 86.3795 12.1187 88.472 13.1606C91.8217 14.9152 94.1002 16.5339 94.1002 19.6052C94.1002 22.6765 91.5797 24.5428 88.2831 24.5428C84.7976 24.5428 82.3332 22.0725 82.1709 18.8381L84.4729 18.8412Z" fill="white"/>
        <path d="M102.376 18.8411C102.538 21.1997 104.332 22.3232 106.183 22.3232C108.382 22.3232 109.724 21.1424 109.724 19.5267C109.724 17.4671 107.901 16.4795 105.622 15.2987C102.272 13.4626 100.478 12.2003 100.478 9.29204C100.478 6.46838 102.889 4.52051 105.891 4.52051C109.028 4.52051 111.171 6.90627 111.333 9.84167H109.028C108.866 8.0297 107.632 6.74018 105.891 6.74018C104.149 6.74018 102.783 7.81226 102.783 9.40076C102.783 11.4332 104.282 12.1187 106.375 13.1606C109.724 14.9152 112.003 16.5339 112.003 19.6052C112.003 22.6765 109.494 24.5458 106.183 24.5458C102.697 24.5458 100.233 22.0755 100.071 18.8411H102.376Z" fill="white"/>
        <path d="M50.5327 2.06565V0L43.8834 0V2.06565L50.5327 2.06565Z" fill="white"/>
    </g>
    <defs>
        <clipPath id="clip0">
            <rect width="112" height="46" fill="white"/>
        </clipPath>
    </defs>
</svg>