<svg width="90" height="90" viewBox="0 0 90 90" fill="none" xmlns="http://www.w3.org/2000/svg">
<path fill-rule="evenodd" clip-rule="evenodd" d="M2.26819 45.0004C2.26819 68.5891 21.4113 87.7323 45 87.7323C68.5888 87.7323 87.7319 68.5891 87.7319 45.0004C87.7319 21.4117 68.619 2.26855 45 2.26855C21.3811 2.26855 2.26819 21.4117 2.26819 45.0004ZM45 4.5367C67.3488 4.5367 85.4638 22.6516 85.4638 45.0004C85.4638 67.3492 67.3488 85.4641 45 85.4641C22.6513 85.4641 4.53633 67.3492 4.53633 45.0004C4.53633 22.6516 22.6513 4.5367 45 4.5367Z" fill="#231F20"/>
<path d="M45 87.7625C39.2238 87.7625 33.6291 86.6436 28.367 84.4057C23.2863 82.2585 18.6896 79.1738 14.7884 75.2424C10.8569 71.3109 7.77222 66.7444 5.62504 61.6637C3.38714 56.4016 2.26819 50.7766 2.26819 45.0307C2.26819 39.2847 3.38714 33.6597 5.62504 28.3976C7.77222 23.317 10.8569 18.7202 14.7884 14.819C18.7198 10.8875 23.2863 7.80286 28.367 5.65568C33.6291 3.41778 39.2541 2.29883 45 2.29883C50.7763 2.29883 56.371 3.41778 61.6331 5.65568C66.7138 7.80286 71.3105 10.8875 75.2117 14.819C79.1432 18.7504 82.2279 23.317 84.375 28.3976C86.6129 33.6597 87.7319 39.2847 87.7319 45.0307C87.7319 50.7766 86.6129 56.4016 84.375 61.6637C82.2279 66.7444 79.1432 71.3412 75.2117 75.2424C71.2803 79.1738 66.7138 82.2585 61.6331 84.4057C56.371 86.6436 50.7763 87.7625 45 87.7625ZM45 2.29883C21.4718 2.29883 2.29843 21.4722 2.29843 45.0004C2.29843 68.5287 21.4718 87.7021 45 87.7021C68.5585 87.7021 87.7017 68.5589 87.7017 45.0004C87.7017 21.442 68.5585 2.29883 45 2.29883ZM45 85.4944C39.5263 85.4944 34.2339 84.4359 29.244 82.319C24.4355 80.2928 20.0807 77.3593 16.3609 73.6396C12.6412 69.9198 9.73795 65.5952 7.6815 60.7565C5.56456 55.7666 4.50609 50.4742 4.50609 45.0004C4.50609 39.5266 5.56456 34.2343 7.6815 29.2444C9.7077 24.4359 12.6412 20.0811 16.3609 16.3613C20.0807 12.6416 24.4053 9.73834 29.244 7.68189C34.2339 5.56496 39.5263 4.50649 45 4.50649C50.4738 4.50649 55.7662 5.56496 60.7561 7.68189C65.5646 9.7081 69.9194 12.6416 73.6392 16.3613C77.3589 20.0811 80.2621 24.4057 82.3186 29.2444C84.4355 34.2343 85.494 39.5266 85.494 45.0004C85.494 50.4742 84.4355 55.7666 82.3186 60.7565C80.2924 65.565 77.3589 69.9198 73.6392 73.6396C69.9194 77.3593 65.5948 80.2625 60.7561 82.319C55.7662 84.4359 50.4738 85.4944 45 85.4944ZM45 4.56697C22.7117 4.56697 4.56658 22.7121 4.56658 45.0004C4.56658 67.2887 22.7117 85.4339 45 85.4339C67.2884 85.4339 85.4335 67.2887 85.4335 45.0004C85.4335 22.7121 67.2884 4.56697 45 4.56697Z" fill="#231F20"/>
<path fill-rule="evenodd" clip-rule="evenodd" d="M85.4637 44.9998C85.4637 22.6511 67.3488 4.53613 45 4.53613C22.6512 4.53613 4.53625 22.6511 4.53625 44.9998C4.53625 67.3486 22.6512 85.4635 45 85.4635C67.3488 85.4635 85.4637 67.3486 85.4637 44.9998Z" fill="white"/>
<path d="M45.3025 47.3589C45.2722 47.2984 45.242 47.3286 45.1815 47.3286C44.9698 47.3286 44.7884 47.3286 44.5767 47.3286C44.0021 47.2984 43.4275 47.2984 42.8529 47.2681C42.3388 47.2379 41.8549 47.2379 41.3408 47.2077C40.7662 47.1774 40.1916 47.1774 39.617 47.1472C39.2238 47.1169 38.8307 47.1169 38.4375 47.1169C38.1654 47.1169 37.9234 47.1169 37.6513 47.0867C37.2279 47.0564 36.8045 47.0262 36.3811 47.0262C36.1089 47.0262 35.8367 47.0262 35.5948 46.996C35.2621 46.996 34.9295 46.9657 34.5968 46.9657C34.3246 46.9657 34.0222 46.9657 33.7501 46.9355C33.1755 46.875 32.5706 46.9052 31.996 46.875C31.3005 46.8448 30.6351 46.8448 29.9396 46.8145C29.5767 46.8145 29.2138 46.7843 28.8509 46.754C28.8206 46.754 28.8206 46.754 28.7601 46.754C28.7904 46.7238 28.8206 46.7238 28.8206 46.7238C29.0323 46.6331 29.244 46.5726 29.4557 46.4819C29.5767 46.4516 29.6674 46.4214 29.7884 46.3609C30.0605 46.2702 30.3025 46.1794 30.5746 46.0585C30.6654 46.0282 30.7561 45.9677 30.8771 45.9375C30.9376 45.9073 30.998 45.9073 31.0888 45.9073C31.6936 45.9073 32.2984 45.9073 32.9033 45.9073C33.4476 45.9073 34.0222 45.9073 34.5666 45.9375C35.5041 45.9677 36.4113 45.9677 37.3488 45.9677C37.8025 45.9677 38.2561 45.9677 38.7097 45.998C39.1936 45.998 39.7077 46.0282 40.1916 46.0282C40.4335 46.0282 40.6755 46.0282 40.9174 46.0282C41.8246 46.0282 42.7017 46.0585 43.6089 46.0585C43.8509 46.0585 44.0928 46.0887 44.3347 46.0887C44.6371 46.0887 44.9093 46.0887 45.2117 46.0585C45.363 46.0585 45.4839 45.998 45.6351 45.9677C45.8166 45.9375 45.9375 45.8468 46.0888 45.756C46.1795 45.6956 46.24 45.6351 46.3005 45.5746C46.3912 45.4536 46.4819 45.3327 46.6029 45.2722C46.6634 45.2419 46.7238 45.1815 46.7843 45.1512C46.9658 45.0907 47.1472 45.0302 47.3287 45.0302C47.5706 45.0302 47.8428 45 48.0847 45C48.3267 45 48.5686 45.0302 48.8105 45.0605C48.9315 45.0605 49.0525 45.0605 49.1734 45.0907C49.2944 45.0907 49.4154 45.121 49.5061 45.121C49.6271 45.121 49.748 45.121 49.869 45.1512C50.2017 45.1815 50.5041 45.1815 50.8367 45.2117C51.0787 45.2419 51.2904 45.2419 51.5323 45.2722H51.5625C51.8347 45.3024 52.1069 45.3024 52.3791 45.3327C52.621 45.3629 52.863 45.3629 53.1049 45.3931C53.1654 45.3931 53.2259 45.3931 53.2863 45.3931C53.4073 45.3931 53.5283 45.3931 53.6795 45.4234C53.7097 45.4234 53.74 45.4234 53.7702 45.4234C54.1331 45.4536 54.4658 45.4839 54.8287 45.4839C55.0706 45.4839 55.2823 45.5141 55.5242 45.5141C55.7964 45.5444 56.0686 45.5746 56.3408 45.5746C56.613 45.6048 56.8549 45.6048 57.1271 45.6048C57.3992 45.6351 57.7017 45.6351 57.9738 45.6653C58.246 45.6956 58.5182 45.6956 58.8206 45.7258C59.1835 45.756 59.5162 45.7863 59.8791 45.7863C59.9093 45.7863 59.9396 45.7863 59.9698 45.8165C59.9396 45.8468 59.9093 45.877 59.8791 45.9073C59.7279 45.998 59.5767 46.1189 59.4254 46.2097C59.244 46.3306 59.0323 46.4819 58.8509 46.6028C58.8206 46.6028 58.8206 46.6331 58.7904 46.6331C58.6996 46.6935 58.6392 46.7238 58.5182 46.7238C58.367 46.7238 58.246 46.754 58.0948 46.754C57.7924 46.7843 57.4597 46.7843 57.1573 46.8145H57.1271C56.7642 46.8448 56.4013 46.8448 56.0384 46.875C55.7662 46.875 55.494 46.875 55.2218 46.9052C54.8589 46.9355 54.5263 46.9657 54.1634 46.9657C53.8307 46.996 53.4678 46.996 53.1351 47.0262C53.0142 47.0262 52.8629 47.0564 52.742 47.0564C52.4396 47.0867 52.1371 47.0867 51.8347 47.1169C51.8045 47.1169 51.8045 47.1169 51.7742 47.1169C51.4113 47.1472 51.0787 47.1472 50.7158 47.1774C50.4436 47.1774 50.1714 47.1774 49.8992 47.2077C49.5968 47.2379 49.2642 47.2379 48.9617 47.2681C48.6291 47.2984 48.2662 47.2984 47.9033 47.2984C47.5404 47.2984 47.2077 47.3286 46.8448 47.3589C46.7843 47.3589 46.7238 47.3589 46.6634 47.3589C46.6331 47.3589 46.6029 47.3891 46.5726 47.3891C46.0888 47.3589 45.6956 47.3589 45.3025 47.3589Z" fill="url(#paint0_linear)"/>
<path d="M46.8448 11.5527C46.875 11.5527 46.8751 11.583 46.9053 11.583C47.1775 11.6737 47.3589 11.8249 47.5706 12.0064C47.8428 12.2483 48.0545 12.5205 48.2964 12.7927C48.4779 13.0346 48.6896 13.2463 48.871 13.4882C48.992 13.6092 49.0827 13.7604 49.2037 13.8814C49.3549 14.0628 49.5061 14.2443 49.6271 14.3955C49.869 14.6979 50.1412 15.0003 50.3831 15.333C50.6553 15.6354 50.8972 15.9681 51.1694 16.2705C51.4113 16.5427 51.623 16.8451 51.865 17.1173C52.0767 17.3894 52.3186 17.6616 52.5303 17.9035C52.6513 18.0548 52.7722 18.1757 52.8932 18.3269C53.0444 18.5084 53.1654 18.6596 53.3166 18.841C53.4073 18.9318 53.4678 19.0225 53.5585 19.1435C53.6795 19.2947 53.8307 19.4761 53.9819 19.6273C54.1331 19.8088 54.3146 20.0205 54.4658 20.2019C54.617 20.3834 54.7682 20.5346 54.8892 20.716C55.0706 20.9277 55.2218 21.1394 55.4033 21.3209C55.6452 21.6233 55.8871 21.8955 56.1291 22.1979C56.25 22.3491 56.371 22.4701 56.4617 22.6213C56.5525 22.7423 56.6432 22.833 56.7339 22.9237C56.7339 22.9539 56.7642 22.9539 56.7642 22.9842C56.7037 22.9539 56.6432 22.9237 56.6129 22.8935C56.3408 22.712 56.0686 22.5306 55.7964 22.3491C55.7057 22.2886 55.615 22.2584 55.5545 22.1979C55.494 22.1374 55.4335 22.0769 55.373 21.9862C55.2521 21.8652 55.1613 21.714 55.0404 21.5931C54.9496 21.4721 54.8287 21.3511 54.738 21.2302C54.5263 20.9882 54.3448 20.7463 54.1331 20.5044C53.9819 20.3229 53.8004 20.1112 53.6492 19.9298C53.4678 19.7181 53.2863 19.5064 53.1049 19.2947C52.9537 19.1132 52.7722 18.9015 52.621 18.7201C52.4698 18.5386 52.3186 18.3874 52.1674 18.206C51.9859 17.9943 51.8045 17.7523 51.623 17.5406C51.3509 17.208 51.0787 16.8753 50.8065 16.5729C50.6855 16.4217 50.5646 16.3007 50.4738 16.1495C50.3226 15.9681 50.1714 15.8168 50.0505 15.6354C49.9295 15.4842 49.8085 15.333 49.6876 15.212C49.5666 15.0608 49.4154 14.9096 49.2944 14.7281C49.1734 14.5769 49.0525 14.4257 48.9315 14.3048C48.7803 14.1233 48.6291 13.9721 48.5081 13.7906C48.4476 13.6999 48.3569 13.6092 48.2964 13.5185C48.1452 13.3673 47.994 13.2463 47.8126 13.1556C47.6613 13.0951 47.5101 13.0346 47.3589 13.0043C47.2984 12.9741 47.238 12.9741 47.1775 12.9741C47.0565 12.9439 46.9053 12.9439 46.7843 12.9439C46.6331 12.9439 46.4819 12.9741 46.3307 12.9741C46.1795 13.0043 45.998 13.0043 45.8468 13.0648C45.6654 13.1253 45.4839 13.1858 45.3025 13.2463C45.121 13.337 44.9396 13.4277 44.7884 13.5185C44.6372 13.6394 44.4859 13.7604 44.3347 13.8814C44.0323 14.1233 43.6996 14.3652 43.3972 14.6072C43.1855 14.7886 42.9738 14.9398 42.7319 15.1213C42.5505 15.2423 42.369 15.3935 42.1876 15.5144C42.0061 15.6656 41.8246 15.7866 41.6432 15.9378C41.371 16.1495 41.0988 16.3612 40.8569 16.5427C40.6755 16.6636 40.494 16.8148 40.3126 16.9358C40.0706 17.1173 39.8589 17.2987 39.617 17.4802C39.3751 17.6616 39.1331 17.8431 38.9214 18.0245C38.6492 18.2362 38.3771 18.4479 38.1049 18.6596C37.9234 18.8108 37.7117 18.9318 37.5303 19.083C37.3488 19.2039 37.1976 19.3249 37.0464 19.4761C36.8045 19.6576 36.5626 19.839 36.3206 19.9902C36.0787 20.1717 35.867 20.3531 35.6251 20.5346C35.4436 20.6858 35.2622 20.8068 35.0505 20.958C34.8085 21.1394 34.5968 21.3209 34.3549 21.4721C34.113 21.6535 33.871 21.835 33.6593 22.0164C33.4174 22.1979 33.2057 22.3793 32.9638 22.5608C32.9033 22.6213 32.8428 22.6515 32.7521 22.6818C32.8126 22.6213 32.9033 22.5306 32.9638 22.4701C33.1755 22.2584 33.4174 22.0467 33.6291 21.835C33.8408 21.6233 34.0525 21.4418 34.2339 21.2302C34.3549 21.1092 34.4759 21.0185 34.5968 20.8975C34.7783 20.716 34.9597 20.5346 35.1412 20.3531C35.2319 20.2624 35.3226 20.2019 35.4134 20.1414C35.6251 19.9902 35.8065 19.839 36.0182 19.6878C36.1694 19.5668 36.3206 19.4459 36.4718 19.3552C36.623 19.2342 36.8045 19.1132 36.9557 18.9923C37.0767 18.9015 37.2279 18.8108 37.3488 18.7201C37.4396 18.6596 37.5001 18.5991 37.5605 18.5386C37.6513 18.4479 37.7722 18.3874 37.863 18.3269C38.0444 18.206 38.1956 18.085 38.3771 17.9338C38.498 17.8431 38.5888 17.7826 38.7097 17.6918C38.8912 17.5406 39.0726 17.4197 39.2541 17.2685C39.4355 17.1475 39.617 16.9963 39.7984 16.8753C39.8892 16.8148 39.9497 16.7543 40.0101 16.6939C40.1009 16.6334 40.1916 16.5729 40.2521 16.5124C40.5545 16.3007 40.8267 16.089 41.1291 15.8471C41.371 15.6656 41.613 15.4842 41.8549 15.3027C42.0363 15.1515 42.2178 15.0306 42.4295 14.8793C42.6109 14.7584 42.7924 14.6072 42.9436 14.4862C43.1855 14.3048 43.4275 14.1233 43.6996 13.9418C43.9416 13.7604 44.1533 13.5789 44.3952 13.4277C44.5464 13.3068 44.7279 13.1858 44.8791 13.0648C44.9698 13.0043 45.0303 12.9439 45.0908 12.8834C45.3025 12.7019 45.4839 12.5205 45.6654 12.339C45.7863 12.2181 45.9073 12.0668 46.0585 11.9459C46.1795 11.8552 46.3005 11.7342 46.4517 11.7039C46.4819 11.7039 46.5121 11.6737 46.5726 11.6435C46.6634 11.5527 46.7541 11.5527 46.8448 11.5527Z" fill="url(#paint1_linear)"/>
<path d="M29.0928 44.3959C29.1533 44.3657 29.2137 44.3355 29.3045 44.3052C29.4859 44.2145 29.6674 44.154 29.8488 44.0633C29.9093 44.033 29.9698 44.0028 30.0303 44.0028C30.1815 43.9423 30.3629 43.8516 30.5141 43.7911C30.6351 43.7306 30.7863 43.7004 30.9073 43.6399C31.0283 43.5794 31.1795 43.5189 31.3004 43.4584C31.3307 43.4584 31.3609 43.4584 31.3912 43.4584C31.996 43.4282 32.6311 43.4282 33.2359 43.398C33.75 43.398 34.2339 43.3677 34.748 43.3677C35.2924 43.3375 35.8367 43.3375 36.3811 43.3072C36.623 43.3072 36.865 43.3072 37.0766 43.277C37.621 43.277 38.1654 43.2468 38.6795 43.2468C39.4658 43.2165 40.252 43.2165 41.0383 43.1863C41.5827 43.0955 42.0968 43.156 42.6412 43.1258C42.9436 43.0955 43.2762 43.0955 43.6089 43.0955C43.9718 43.0955 44.3649 43.0955 44.7279 43.0653C44.9395 43.0653 45.1512 43.0351 45.3629 42.9746C45.4839 42.9443 45.6049 42.9443 45.6956 42.8839C45.8166 42.8234 45.9678 42.7629 46.0585 42.6722C46.1795 42.5814 46.2702 42.4605 46.3609 42.3697C46.4516 42.279 46.5726 42.1883 46.6936 42.1278C46.9053 42.0371 47.0867 42.0068 47.2984 42.0068C47.6311 42.0068 47.9637 42.0371 48.2662 42.0371C48.3871 42.0371 48.5081 42.0371 48.6291 42.0673C48.8408 42.1278 49.0524 42.0976 49.2641 42.158C49.3851 42.1883 49.5061 42.1883 49.627 42.1883C49.7783 42.2185 49.9597 42.2488 50.1109 42.2488C50.2016 42.2488 50.2924 42.2488 50.3831 42.279C50.5645 42.3093 50.746 42.3093 50.8972 42.3395C51.0182 42.3697 51.1391 42.3697 51.2601 42.4C51.4718 42.4302 51.7137 42.4605 51.9254 42.4907C52.0766 42.5209 52.2279 42.5512 52.4093 42.5512C52.5303 42.5814 52.6512 42.5814 52.7722 42.5814C52.9234 42.6117 53.0746 42.6117 53.2258 42.6419C53.5887 42.7024 53.9516 42.7326 54.3145 42.7931C54.4355 42.7931 54.5565 42.7931 54.6472 42.8234C54.8287 42.8839 55.0101 42.8839 55.1916 42.8839C55.373 42.9141 55.5545 42.9141 55.7359 42.9443C55.8871 42.9746 56.0081 43.0048 56.1593 43.0048C56.2803 43.0351 56.4315 43.0351 56.5525 43.0351C56.6734 43.0351 56.8246 43.0653 56.9456 43.0955C57.2783 43.156 57.6412 43.1863 58.0041 43.2468C58.1553 43.277 58.3065 43.3072 58.4274 43.3072C58.5484 43.3375 58.6694 43.3375 58.7904 43.3375C58.9416 43.3677 59.0928 43.3677 59.244 43.398C59.3347 43.398 59.4557 43.4282 59.5464 43.4584C59.4859 43.5189 59.4254 43.5492 59.365 43.6097C59.0625 43.7911 58.7601 44.0028 58.4577 44.1843C58.4275 44.2145 58.3972 44.2145 58.3972 44.2447C58.3367 44.275 58.2762 44.3052 58.2158 44.3052C57.5504 44.3052 56.9154 44.3052 56.25 44.3052C55.5242 44.3052 54.7984 44.3052 54.1029 44.275C53.5585 44.275 53.0141 44.275 52.4698 44.275C52.2581 44.275 52.0464 44.275 51.865 44.275C50.8065 44.275 49.7178 44.2447 48.6593 44.2447C47.873 44.2447 47.0867 44.2447 46.3004 44.2447C46.119 44.2447 45.9678 44.2447 45.7863 44.2447C44.8791 44.2447 43.9718 44.275 43.0645 44.275C42.248 44.275 41.4012 44.275 40.5847 44.275C39.3448 44.275 38.1049 44.275 36.865 44.3052C36.4113 44.3052 35.9577 44.3052 35.5041 44.3052C34.3549 44.3052 33.2057 44.3355 32.0867 44.3355C31.6029 44.3355 31.1492 44.3657 30.6654 44.3657C30.1815 44.3657 29.6674 44.3657 29.1835 44.3959C29.1533 44.4262 29.123 44.4262 29.0928 44.3959C29.0928 44.4262 29.0928 44.3959 29.0928 44.3959Z" fill="url(#paint2_linear)"/>
<path d="M29.4557 42.2787C29.5162 42.2485 29.5767 42.2182 29.6674 42.188C29.8186 42.1275 29.9698 42.067 30.1513 41.9763C30.2722 41.9158 30.3932 41.8553 30.5444 41.7948C30.6049 41.7646 30.6654 41.7343 30.7258 41.7343C30.9678 41.6134 31.24 41.4924 31.4819 41.4017C31.5121 41.4017 31.5121 41.3714 31.5424 41.3714C31.6633 41.311 31.7541 41.311 31.875 41.2807C32.1472 41.2807 32.4194 41.2202 32.6916 41.2202C32.9033 41.19 33.115 41.19 33.3267 41.19C33.5686 41.1597 33.8105 41.1597 34.0827 41.1295C34.1129 41.1295 34.1432 41.1295 34.1734 41.1295C34.5363 41.0993 34.869 41.069 35.2319 41.0388C35.4133 41.0388 35.625 41.0085 35.8065 41.0085C36.0484 40.9783 36.2904 40.9783 36.5625 40.9481C36.5928 40.9481 36.6533 40.9481 36.6835 40.9481C36.8347 40.9481 36.9557 40.9481 37.1069 40.9178C37.1371 40.9178 37.1371 40.9178 37.1674 40.9178C37.621 40.8876 38.0444 40.8573 38.498 40.8271C38.74 40.7968 38.9517 40.7666 39.1936 40.7666C39.3448 40.7666 39.4658 40.7364 39.617 40.7364C40.0404 40.7061 40.494 40.6759 40.9174 40.6456C41.1593 40.5851 41.4012 40.6154 41.6432 40.5851C41.8851 40.5549 42.0968 40.5549 42.3388 40.5549C42.6109 40.5247 42.8831 40.4944 43.1553 40.4944C43.367 40.4642 43.6089 40.4642 43.8206 40.4642C44.0928 40.4339 44.3347 40.4339 44.6069 40.4037C44.6674 40.4037 44.7279 40.4037 44.7883 40.4037C44.9093 40.3735 45.0605 40.3735 45.1815 40.3432C45.3025 40.313 45.4234 40.2827 45.5444 40.2525C45.6956 40.192 45.8166 40.1315 45.9375 40.0408C46.119 39.9198 46.2097 39.7686 46.3609 39.6477C46.4819 39.5267 46.6331 39.436 46.8146 39.4057C47.1775 39.3452 47.5404 39.3452 47.9335 39.4057C48.0242 39.4057 48.115 39.4057 48.1754 39.436C48.4476 39.4964 48.75 39.5569 49.0222 39.5872C49.1734 39.6174 49.3246 39.6476 49.4758 39.6779C49.7178 39.7384 49.9597 39.7686 50.1714 39.8291C50.2319 39.8291 50.2621 39.8291 50.3226 39.8593C50.4436 39.8896 50.5646 39.8896 50.6855 39.9198C50.9275 39.9803 51.1694 40.0106 51.4113 40.071C51.6533 40.1013 51.8952 40.1618 52.1069 40.2222C52.2581 40.2525 52.4093 40.2827 52.5605 40.313C52.742 40.3432 52.8932 40.3735 53.0746 40.4037C53.2258 40.4339 53.3771 40.4642 53.5283 40.4944C53.7097 40.5247 53.8609 40.5549 54.0121 40.5851C54.1633 40.6154 54.3146 40.6456 54.4355 40.6759C54.5565 40.7061 54.7077 40.7061 54.8287 40.7666C54.8589 40.7968 54.9194 40.7666 54.9496 40.7666C55.1008 40.7968 55.2823 40.8271 55.4335 40.8573C55.6754 40.9178 55.9174 40.9481 56.1291 41.0085C56.2803 41.0388 56.4617 41.069 56.6129 41.0993C56.7944 41.1295 56.9456 41.1597 57.1271 41.19C57.248 41.2202 57.3992 41.2505 57.5202 41.2505C57.7017 41.2807 57.8831 41.311 58.0948 41.3714C58.246 41.4017 58.3972 41.4319 58.5484 41.4622C58.7601 41.4924 58.9718 41.5529 59.1835 41.5831C59.1835 41.5831 59.2137 41.5831 59.2137 41.6134C59.1533 41.6436 59.123 41.7041 59.0625 41.7343C58.8206 41.8856 58.5787 42.0065 58.3367 42.1577C58.2158 42.2182 58.125 42.2787 58.0041 42.3392C57.9738 42.3694 57.9133 42.3694 57.8831 42.3694C57.7924 42.3694 57.7319 42.3694 57.6412 42.3694C57.369 42.3392 57.0666 42.3392 56.7944 42.3089C56.5525 42.2787 56.3408 42.2787 56.0988 42.2485C55.8267 42.2182 55.5847 42.2182 55.3125 42.188C55.0706 42.1577 54.7984 42.1577 54.5565 42.1275C54.3146 42.0972 54.1029 42.0972 53.8609 42.067C53.7097 42.067 53.5585 42.067 53.4375 42.0368C53.1654 42.0065 52.9234 42.0065 52.6513 41.9763C52.2883 41.946 51.9254 41.9158 51.5625 41.9158C51.3811 41.9158 51.1996 41.8856 51.0484 41.8856C50.7158 41.8251 50.3831 41.8251 50.0807 41.8251C49.7783 41.7948 49.4758 41.7948 49.1432 41.7646C48.9617 41.7646 48.8105 41.7343 48.6291 41.7041C48.4174 41.6739 48.2359 41.6739 48.0242 41.6739C47.2984 41.6739 46.5726 41.6739 45.8771 41.6739C45.4839 41.6739 45.121 41.6739 44.7279 41.7041C44.4557 41.7041 44.1835 41.7041 43.9416 41.7343C43.5787 41.7646 43.246 41.7646 42.8831 41.7948C42.5202 41.8251 42.1573 41.8251 41.7944 41.8553C41.4315 41.8856 41.0686 41.8856 40.7057 41.9158C40.4033 41.946 40.1008 41.946 39.7984 41.9763H39.7682C39.4053 42.0065 39.0424 42.0065 38.6795 42.0368C38.3771 42.067 38.1049 42.067 37.8025 42.0972C37.7722 42.0972 37.7722 42.0972 37.742 42.0972C37.3791 42.1275 37.0162 42.1275 36.6533 42.1577C36.4113 42.1577 36.1996 42.1577 35.9577 42.188C35.7158 42.2182 35.4738 42.2182 35.2319 42.2485C35.0807 42.2787 34.8992 42.2787 34.748 42.2787C34.4456 42.2787 34.1734 42.3089 33.871 42.3089C33.4476 42.3392 33.0242 42.3392 32.6008 42.3694C32.2984 42.3997 31.996 42.3997 31.7238 42.4299C31.4214 42.4602 31.119 42.4602 30.8166 42.4602C30.4537 42.4904 30.0908 42.5206 29.7279 42.5509C29.6976 42.3089 29.5767 42.3089 29.4557 42.2787Z" fill="url(#paint3_linear)"/>
<path d="M29.7581 40.2824C29.8185 40.2522 29.9093 40.2219 29.9697 40.1917C30.2117 40.0707 30.4234 39.98 30.6653 39.859C30.7863 39.7985 30.9072 39.738 31.0585 39.6776C31.0887 39.6473 31.1492 39.6473 31.1794 39.6171C31.4516 39.4961 31.7238 39.3449 31.9657 39.2239C32.0262 39.1937 32.0564 39.1937 32.1169 39.1937C32.2379 39.1937 32.3286 39.1635 32.4496 39.1635C32.6008 39.1332 32.752 39.1332 32.9032 39.103C32.9335 39.103 32.9335 39.103 32.9637 39.103C33.2661 39.0727 33.5685 39.0425 33.871 38.982C34.0524 38.9518 34.2036 38.9518 34.3851 38.9215C34.506 38.9215 34.5968 38.8913 34.7177 38.861C35.0202 38.8308 35.2923 38.8005 35.5947 38.7703C35.746 38.7401 35.8972 38.7401 36.0484 38.7098C36.1391 38.6796 36.2298 38.6796 36.3206 38.6796C36.502 38.6493 36.6835 38.6493 36.8649 38.6191C36.9859 38.6191 37.1068 38.5889 37.1976 38.5586C37.4698 38.5284 37.7419 38.4981 38.0443 38.4679C38.1956 38.4376 38.3468 38.4376 38.498 38.4074C38.5887 38.4074 38.6794 38.3772 38.8004 38.3772C39.0726 38.3469 39.3145 38.3167 39.5867 38.2864C39.7379 38.2864 39.8589 38.2562 40.0101 38.226C40.131 38.1957 40.252 38.1957 40.373 38.1655C40.6754 38.1352 40.9778 38.0747 41.2802 38.0445C41.5524 38.0143 41.8246 37.984 42.0665 37.9538C42.2177 37.9235 42.3689 37.8933 42.5202 37.8933C42.6109 37.8933 42.7016 37.863 42.7923 37.863C42.9435 37.8328 43.125 37.8328 43.2762 37.8026C43.4274 37.7723 43.5484 37.7723 43.6996 37.7421C43.9718 37.7118 44.2742 37.6816 44.5464 37.6514C44.7278 37.6211 44.9093 37.5909 45.0907 37.5606C45.3024 37.5304 45.4839 37.4397 45.6956 37.3489C45.8165 37.2885 45.9375 37.1977 46.0282 37.107C46.1492 37.0163 46.2399 36.8953 46.3306 36.8046C46.4818 36.6534 46.6633 36.5929 46.8447 36.5626C47.1774 36.5324 47.5101 36.5626 47.873 36.6231C48.1149 36.6534 48.3568 36.7441 48.629 36.7743C48.8105 36.8046 48.9919 36.8651 49.1734 36.9255C49.3851 36.986 49.5968 37.0163 49.7782 37.0768C49.9597 37.107 50.1411 37.1675 50.3226 37.228C50.504 37.2885 50.6855 37.3187 50.8669 37.3489C51.0786 37.4094 51.2903 37.4699 51.502 37.5001C51.623 37.5304 51.7439 37.5606 51.8347 37.5909C51.9556 37.6211 52.0766 37.6514 52.1976 37.6816C52.379 37.7421 52.5907 37.7723 52.7722 37.8328C52.9839 37.8933 53.1653 37.9538 53.377 37.984C53.5887 38.0445 53.8004 38.0747 54.0121 38.1352C54.1935 38.1957 54.375 38.226 54.5564 38.2864C54.6774 38.3167 54.7984 38.3469 54.9194 38.3772C55.0403 38.4074 55.131 38.4376 55.252 38.4679C55.4335 38.5284 55.6452 38.5586 55.8266 38.6191C56.0383 38.6796 56.2198 38.7401 56.4314 38.7703C56.5524 38.8005 56.6431 38.8308 56.7641 38.861C56.9456 38.8913 57.0968 38.9215 57.2782 38.982C57.4597 39.0425 57.6411 39.0727 57.8226 39.103C58.0645 39.1635 58.3064 39.2239 58.5484 39.2844C58.6694 39.3147 58.8206 39.3449 58.9415 39.3751C58.9718 39.3751 58.9718 39.4054 59.0323 39.4054C58.8206 39.5264 58.6391 39.6171 58.4274 39.7078C58.2157 39.8288 57.9738 39.9195 57.7621 40.0405C57.7318 40.0405 57.7016 40.0707 57.7016 40.0707C57.6109 40.0102 57.5202 40.0405 57.3992 40.0405C57.1875 40.0102 56.9456 39.98 56.7339 39.9497C56.6431 39.9497 56.5524 39.9195 56.4617 39.8893C56.25 39.859 56.0081 39.8288 55.7964 39.7985C55.5847 39.7683 55.373 39.7381 55.1915 39.7078C55.0101 39.6776 54.8286 39.6776 54.6472 39.6473C54.3448 39.6171 54.0423 39.5566 53.7399 39.4961C53.5282 39.4659 53.3165 39.4356 53.1351 39.4054C52.8327 39.3449 52.5302 39.3147 52.2278 39.2542C52.1371 39.2542 52.0766 39.2239 51.9859 39.2239C51.7742 39.1937 51.5625 39.1635 51.381 39.1332C51.2903 39.1332 51.1996 39.103 51.1089 39.0727C50.8669 39.0425 50.6552 39.0122 50.4133 38.982C50.2016 38.9518 50.0202 38.9215 49.8085 38.8913C49.5665 38.861 49.3548 38.8308 49.1129 38.8005C48.9012 38.7703 48.7197 38.7703 48.5081 38.7098C48.3266 38.6796 48.1754 38.6796 47.9939 38.6493C47.9637 38.6493 47.9637 38.6493 47.9335 38.6493C47.4193 38.6493 46.9355 38.6191 46.4214 38.6191C45.998 38.6191 45.5746 38.6493 45.1512 38.6493C44.9093 38.7098 44.6371 38.6796 44.3952 38.7098C44.2742 38.7401 44.1532 38.7401 44.0323 38.7401C43.8508 38.7703 43.6391 38.7703 43.4577 38.8005C43.1552 38.8308 42.8831 38.861 42.5806 38.8913C42.4597 38.8913 42.3689 38.9215 42.248 38.9215C42.0665 38.9518 41.8548 38.9518 41.6734 38.982C41.5222 38.982 41.371 39.0122 41.2198 39.0425C41.0383 39.0727 40.8871 39.0727 40.7056 39.103C40.5242 39.1332 40.3427 39.1332 40.1613 39.1635C39.8589 39.1937 39.5564 39.2239 39.254 39.2542C39.0726 39.2844 38.8911 39.2844 38.7399 39.3147C38.6189 39.3147 38.498 39.3449 38.377 39.3449C38.0746 39.3751 37.7419 39.4054 37.4395 39.4356C37.2883 39.4356 37.1673 39.4659 37.0161 39.4961C36.8952 39.5264 36.7439 39.5264 36.623 39.5566C36.4113 39.5868 36.2298 39.5868 36.0181 39.6171C35.8669 39.6171 35.746 39.6473 35.5947 39.6776C35.2621 39.7078 34.9597 39.738 34.627 39.7683C34.4456 39.7985 34.2641 39.8288 34.1129 39.8288C33.9314 39.859 33.7802 39.859 33.5988 39.859C33.4173 39.8893 33.2359 39.9195 33.0242 39.9195C32.873 39.9497 32.7218 39.9497 32.5706 39.9497C32.3891 39.98 32.1774 39.98 31.996 40.0102H31.9657C31.7843 40.0405 31.5726 40.0405 31.3911 40.0707C31.0887 40.101 30.7863 40.1312 30.4839 40.1614C30.3629 40.1614 30.2419 40.1917 30.121 40.1917C30.0302 40.1917 29.9395 40.1917 29.8185 40.2219C29.7883 40.3126 29.7883 40.3126 29.7581 40.2824Z" fill="url(#paint4_linear)"/>
<path d="M58.7903 37.6213C58.5786 37.712 58.3669 37.7725 58.1855 37.8632C58.004 37.954 57.7923 38.0144 57.6109 38.1052C57.4899 38.1657 57.3689 38.1354 57.2782 38.1052C57.127 38.0749 56.9758 38.0447 56.8246 38.0144C56.7338 37.9842 56.6129 37.954 56.5222 37.9237C56.4617 37.9237 56.4314 37.9237 56.3709 37.8935C56.2197 37.8632 56.0685 37.833 55.9173 37.8027C55.7056 37.7725 55.5242 37.712 55.3125 37.6515C55.0705 37.5911 54.7984 37.5608 54.5564 37.5003C54.4959 37.5003 54.4355 37.4701 54.375 37.4398C54.133 37.3794 53.9213 37.3491 53.6794 37.2886C53.4677 37.2584 53.2863 37.1979 53.0746 37.1374C52.9536 37.1072 52.8024 37.0769 52.6814 37.0467C52.4697 36.9862 52.258 36.956 52.0463 36.8955C51.9859 36.8955 51.9254 36.8653 51.8649 36.8653C51.623 36.8048 51.4113 36.7443 51.1693 36.714C50.9274 36.6536 50.6552 36.6233 50.4133 36.5628C50.2016 36.5326 50.0201 36.4721 49.8084 36.4116C49.748 36.4116 49.6875 36.3814 49.627 36.3814C49.3246 36.3209 48.9919 36.2604 48.6895 36.1999C48.5383 36.1697 48.4173 36.1394 48.2963 36.1092C48.1149 36.079 47.9637 36.079 47.7822 36.0487C47.5705 36.0185 47.3588 36.0185 47.1169 35.9882C46.7238 35.9882 46.3609 35.9882 45.9677 35.9882C45.8467 35.9882 45.7258 35.9882 45.6351 35.9882C45.4838 35.9882 45.3326 36.0185 45.1512 36.0185C44.9697 36.0487 44.7883 36.0487 44.6068 36.079C44.4254 36.1092 44.2742 36.1092 44.0927 36.1394C43.8205 36.1697 43.5484 36.2302 43.2762 36.2604C42.9738 36.2907 42.6713 36.3511 42.3689 36.3814C42.1875 36.4116 42.006 36.4419 41.8548 36.4721C41.6431 36.5023 41.4012 36.5326 41.1895 36.5628C41.0685 36.5931 40.9778 36.5931 40.8568 36.6233C40.7661 36.6233 40.7056 36.6536 40.6149 36.6536C40.4032 36.6838 40.1915 36.714 40.0101 36.7443C39.9193 36.7443 39.7984 36.7745 39.7076 36.8048C39.5564 36.835 39.4052 36.835 39.2842 36.8653C39.1935 36.8653 39.1028 36.8955 38.9818 36.9257C38.8306 36.956 38.7097 36.956 38.5584 36.9862C38.4375 37.0165 38.3467 37.0165 38.2258 37.0467C37.9838 37.0769 37.7419 37.1374 37.5 37.1677C37.379 37.1979 37.258 37.1979 37.1068 37.2282C36.8951 37.2584 36.7137 37.2886 36.502 37.3189C36.4113 37.3189 36.3205 37.3491 36.2298 37.3491C36.0786 37.3794 35.9274 37.4096 35.7762 37.4096C35.7157 37.4096 35.625 37.4398 35.5645 37.4398C35.3528 37.4701 35.1411 37.5003 34.9294 37.5306C34.8387 37.5306 34.748 37.5608 34.6572 37.5911C34.506 37.6213 34.3548 37.6213 34.2036 37.6515C34.1129 37.6515 34.0524 37.6818 33.9617 37.6818C33.8105 37.712 33.6592 37.7423 33.4778 37.7423C33.3266 37.7725 33.1451 37.7725 32.9939 37.8027C32.752 37.8632 32.5101 37.8935 32.2681 37.9237C32.0867 37.954 31.9052 37.9842 31.7238 38.0144C31.5121 38.0447 31.3004 38.0749 31.0887 38.1052C30.998 38.1052 30.9072 38.1354 30.8165 38.1657C30.6048 38.1959 30.3931 38.2261 30.1814 38.2564C30.1512 38.2564 30.1209 38.2564 30.0907 38.2564V38.2261C30.2117 38.1657 30.3024 38.1052 30.4234 38.0447C30.5746 37.954 30.756 37.8632 30.9072 37.8027C31.1492 37.6818 31.3911 37.5608 31.633 37.4398C31.7842 37.3491 31.9657 37.2584 32.1169 37.1677C32.2681 37.1072 32.3891 37.0467 32.5705 37.0165C32.8427 36.9862 33.0847 36.9257 33.3568 36.8653C33.4173 36.8653 33.4476 36.8653 33.508 36.835C33.7197 36.8048 33.9012 36.7745 34.1129 36.7443C34.2036 36.7443 34.2943 36.714 34.3851 36.6838C34.5967 36.6536 34.7782 36.6233 34.9899 36.5931C35.1713 36.5628 35.383 36.5326 35.5645 36.5023C35.625 36.5023 35.6855 36.4721 35.7762 36.4721C35.9879 36.4419 36.1996 36.4116 36.381 36.3814C36.5927 36.3511 36.8044 36.3209 36.9859 36.2907C37.0766 36.2907 37.1673 36.2604 37.258 36.2302C37.379 36.1999 37.5302 36.1999 37.6512 36.1697C37.7419 36.1394 37.8326 36.1394 37.9234 36.1092C38.0443 36.079 38.1653 36.079 38.256 36.0487C38.377 36.0185 38.498 36.0185 38.5887 35.9882C38.8609 35.958 39.133 35.8975 39.375 35.8673C39.5262 35.837 39.7076 35.8068 39.8588 35.7765C40.0403 35.7463 40.252 35.7161 40.4334 35.6858C40.5242 35.6556 40.6451 35.6556 40.7359 35.6253C40.8568 35.5951 40.9778 35.5951 41.0988 35.5648C41.25 35.5346 41.4314 35.5346 41.5826 35.5044C41.7943 35.4439 42.006 35.4136 42.2177 35.3834C42.3689 35.3532 42.5504 35.3229 42.7016 35.2927C42.883 35.2624 43.0947 35.2322 43.2762 35.2019C43.3669 35.1717 43.4879 35.1717 43.5786 35.1415C43.7601 35.1112 43.9717 35.081 44.1532 35.0507C44.4254 34.9903 44.7278 34.96 45 34.8995C45.1814 34.8693 45.3629 34.8088 45.5141 34.7181C45.6653 34.6576 45.7863 34.5669 45.9072 34.4761C45.9677 34.4157 46.0282 34.3552 46.0887 34.2947C46.2097 34.1435 46.3609 34.0528 46.5423 33.9923C46.6028 33.962 46.6935 33.9318 46.7842 33.9318C47.0262 33.9015 47.2681 33.9318 47.5403 33.9923C47.6613 34.0225 47.8125 34.0225 47.9334 34.083C48.1149 34.1132 48.2661 34.1737 48.4476 34.2342C48.6592 34.2947 48.8709 34.3552 49.0524 34.4157C49.2641 34.4761 49.4758 34.5669 49.7177 34.6274C49.8084 34.6576 49.8992 34.6878 49.9899 34.7181C50.1713 34.7786 50.3528 34.839 50.504 34.8693C50.6552 34.8995 50.7762 34.96 50.9274 34.9903C51.1088 35.0507 51.2601 35.1112 51.4415 35.1415C51.5927 35.1717 51.7137 35.2322 51.8649 35.2624C52.0161 35.3229 52.1976 35.3532 52.3488 35.4136C52.5 35.4741 52.6512 35.5044 52.8024 35.5648C52.9536 35.6253 53.1351 35.6556 53.2863 35.7161C53.4375 35.7765 53.5887 35.8068 53.7399 35.8673C53.8911 35.9278 54.0423 35.958 54.1935 36.0185C54.375 36.079 54.5262 36.1394 54.7076 36.1697C54.8588 36.1999 54.9798 36.2604 55.131 36.2907C55.2822 36.3511 55.4334 36.3814 55.5847 36.4419C55.7359 36.5023 55.8871 36.5326 56.0685 36.5931C56.1592 36.6233 56.25 36.6536 56.3709 36.6838C56.5826 36.7443 56.7943 36.8048 56.9758 36.8955C57.0665 36.9257 57.1875 36.956 57.2782 36.9862C57.4899 37.0467 57.7016 37.1374 57.9133 37.1979C58.0343 37.2282 58.125 37.2584 58.2459 37.2886C58.3367 37.3189 58.3972 37.3491 58.4879 37.3794C58.5181 37.3794 58.5484 37.4096 58.6088 37.4096C58.7298 37.5911 58.7601 37.6213 58.7903 37.6213Z" fill="url(#paint5_linear)"/>
<path d="M58.5182 35.8669C58.5182 35.8971 58.5182 35.8971 58.488 35.8971C58.3065 35.9576 58.0949 36.0181 57.9134 36.0786C57.7319 36.1391 57.5505 36.1693 57.3993 36.26C57.2783 36.3205 57.1876 36.3205 57.0969 36.2903C56.9457 36.2298 56.7642 36.1996 56.613 36.1391C56.3711 36.0786 56.1594 35.9879 55.9174 35.9274C55.7965 35.8971 55.7057 35.8669 55.5848 35.8366C55.3731 35.7762 55.1916 35.7157 54.9799 35.6552C54.8287 35.625 54.6473 35.5645 54.4961 35.5342C54.2541 35.4737 54.0424 35.383 53.8005 35.3225C53.6795 35.2923 53.5586 35.2621 53.4074 35.2318C53.2561 35.2016 53.1049 35.1411 52.9235 35.0806C52.7723 35.0201 52.5908 34.9899 52.4396 34.9596C52.3791 34.9294 52.3186 34.8991 52.2279 34.8991C52.0465 34.8387 51.8953 34.8084 51.7138 34.7479C51.5021 34.6875 51.2904 34.627 51.0787 34.5362C50.988 34.506 50.8973 34.4758 50.8065 34.4758C50.7158 34.4455 50.6251 34.4153 50.5041 34.385C50.3832 34.3548 50.2622 34.3246 50.1412 34.2943C49.8993 34.2338 49.6574 34.1431 49.4154 34.0826C49.3247 34.0524 49.2037 34.0221 49.113 33.9919C48.9013 33.9314 48.7199 33.8709 48.5082 33.8104C48.2662 33.75 48.0545 33.6592 47.8126 33.6592C47.6614 33.6592 47.5102 33.629 47.359 33.5987C47.3287 33.5987 47.2985 33.5987 47.238 33.5987C46.7239 33.5685 46.1795 33.5685 45.6654 33.5987C45.4537 33.5987 45.242 33.6592 45.0303 33.6592C44.9396 33.6592 44.8791 33.6895 44.7884 33.6895C44.5767 33.7197 44.3953 33.75 44.1836 33.7802C44.0626 33.8104 43.9114 33.8407 43.7904 33.8709C43.609 33.9012 43.4578 33.9314 43.2763 33.9616C43.1553 33.9919 43.0041 34.0221 42.8832 34.0524C42.6412 34.1129 42.3993 34.1431 42.1876 34.2036C42.0666 34.2338 41.9457 34.2338 41.8247 34.2641C41.5828 34.3548 41.3408 34.3548 41.0989 34.4153C40.857 34.4758 40.615 34.506 40.4033 34.5665C40.2521 34.5967 40.1311 34.627 39.9799 34.6572C39.738 34.7177 39.5263 34.7479 39.2844 34.7782C39.1029 34.8084 38.9517 34.8387 38.7703 34.8991C38.5283 34.9596 38.2864 34.9899 38.0142 35.0504C37.8932 35.0806 37.742 35.1108 37.6211 35.1411C37.3791 35.2016 37.1372 35.2318 36.9255 35.2923C36.8045 35.3225 36.6836 35.3225 36.5626 35.3528C36.4114 35.383 36.2904 35.4133 36.1392 35.4435C35.8368 35.504 35.5344 35.5645 35.232 35.625C34.9295 35.6854 34.6271 35.7459 34.3247 35.8064C34.0828 35.8669 33.8711 35.8971 33.6291 35.9274C33.5082 35.9576 33.3872 35.9879 33.236 36.0181C33.0848 36.0483 32.9033 36.0786 32.7219 36.1088C32.5707 36.1391 32.4195 36.1693 32.2985 36.1995C32.0868 36.26 31.8449 36.2903 31.6332 36.3205C31.5122 36.3508 31.3912 36.3508 31.3005 36.381C31.1493 36.4112 31.0283 36.4415 30.8771 36.4717C30.7259 36.502 30.6049 36.5322 30.4537 36.5625C30.4235 36.5625 30.3932 36.5625 30.3328 36.5625C30.363 36.5322 30.363 36.502 30.3932 36.502C30.5142 36.4415 30.6654 36.3508 30.7864 36.2903C30.9981 36.1693 31.2098 36.0483 31.4517 35.9274C31.6029 35.8366 31.7541 35.7459 31.9356 35.6854C32.0868 35.5947 32.2682 35.504 32.4195 35.4133C32.5404 35.3528 32.6916 35.2923 32.8126 35.2621C32.9941 35.2318 33.1453 35.2016 33.2965 35.1411C33.4477 35.1108 33.5989 35.0806 33.7501 35.0504C33.8711 35.0201 34.0223 34.9899 34.1432 34.9596C34.3247 34.9294 34.5061 34.8689 34.6876 34.8387C34.8691 34.8084 35.0505 34.7782 35.2622 34.7177C35.4739 34.6875 35.6553 34.627 35.867 34.5967C36.1392 34.5362 36.4114 34.4758 36.6836 34.4153C36.9255 34.3548 37.1372 34.3246 37.3791 34.2641C37.5908 34.2036 37.8328 34.1733 38.0445 34.1129C38.2864 34.0524 38.5283 34.0221 38.74 33.9616C38.861 33.9314 38.982 33.9012 39.1029 33.8709C39.2541 33.8407 39.4356 33.8104 39.5868 33.7802C39.859 33.7197 40.1311 33.6592 40.3731 33.5987C40.5545 33.5685 40.736 33.5383 40.9174 33.508C40.9779 33.508 41.0686 33.4778 41.1291 33.4475C41.2803 33.4173 41.4013 33.3871 41.5525 33.3568C41.7642 33.3266 41.9759 33.2661 42.1876 33.2358C42.4295 33.1754 42.6412 33.1451 42.8832 33.0846C43.1251 33.0241 43.3368 32.9637 43.5787 32.9334C43.7904 32.8729 44.0324 32.8427 44.2441 32.8125C44.365 32.7822 44.486 32.7822 44.607 32.752C44.8186 32.6915 45.0303 32.6612 45.242 32.5705C45.3932 32.51 45.5445 32.4496 45.6957 32.3588C45.7864 32.2983 45.9074 32.2076 45.9981 32.1471C46.1191 32.0564 46.24 31.9354 46.361 31.8447C46.4215 31.8145 46.4517 31.7842 46.5122 31.754C46.6634 31.6935 46.8449 31.6633 47.0263 31.6935C47.2078 31.7237 47.3892 31.754 47.5707 31.7842C47.7521 31.8145 47.9336 31.875 48.115 31.9052C48.236 31.9354 48.3569 31.9959 48.5082 32.0262C48.7199 32.0866 48.9013 32.1774 49.113 32.2379C49.2944 32.2983 49.4457 32.3891 49.6271 32.4496C49.7783 32.51 49.9598 32.5705 50.111 32.631C50.2622 32.6915 50.3832 32.752 50.5344 32.7822C50.7158 32.8427 50.9275 32.9334 51.109 32.9939C51.2904 33.0544 51.4416 33.1451 51.6231 33.2056C51.6836 33.2358 51.744 33.2358 51.8045 33.2661C51.986 33.3266 52.1372 33.3871 52.3186 33.4475C52.5001 33.508 52.6815 33.5987 52.863 33.6592C52.9537 33.6895 53.0142 33.7197 53.1049 33.75C53.2864 33.8407 53.4981 33.9012 53.6795 33.9919C53.9215 34.0826 54.1332 34.1733 54.3751 34.2338C54.5565 34.2943 54.7078 34.3548 54.8892 34.4455C55.0707 34.506 55.2824 34.5967 55.4638 34.6572C55.5848 34.7177 55.7057 34.7479 55.8267 34.8084C56.0082 34.8689 56.2199 34.9596 56.4013 35.0201C56.5828 35.0806 56.734 35.1411 56.9154 35.2318C57.0061 35.2621 57.0666 35.2923 57.1574 35.3225C57.3388 35.383 57.5203 35.4435 57.6715 35.5342C57.7622 35.5645 57.8529 35.5947 57.9436 35.625C58.0949 35.7157 58.3368 35.7762 58.5182 35.8669Z" fill="url(#paint6_linear)"/>
<path d="M30.6654 34.8694C30.8469 34.7484 31.0586 34.6275 31.24 34.5065C31.5424 34.3251 31.8146 34.1738 32.117 33.9924C32.2985 33.9017 32.4799 33.7807 32.6614 33.69C32.7823 33.6295 32.9033 33.569 32.994 33.5085C33.0545 33.4783 33.1452 33.448 33.2057 33.448C33.4174 33.3875 33.6291 33.3271 33.8408 33.2666C34.0525 33.2061 34.2642 33.1759 34.4759 33.1154C34.5364 33.1154 34.5666 33.0851 34.6271 33.0851C34.8388 33.0246 35.0807 32.9642 35.2924 32.9037C35.5041 32.8432 35.6856 32.813 35.8973 32.7525C36.1392 32.692 36.3811 32.6013 36.6231 32.5408C36.744 32.5105 36.865 32.4803 36.986 32.4501C37.1977 32.3896 37.4094 32.3291 37.621 32.2686C37.742 32.2384 37.863 32.2081 37.984 32.1779C38.1352 32.1476 38.2864 32.0871 38.4376 32.0569C38.5585 32.0267 38.7098 31.9964 38.8307 31.9662C39.0727 31.9057 39.3146 31.815 39.5565 31.7545C39.6775 31.7242 39.7985 31.694 39.9194 31.6638C40.1311 31.6033 40.3428 31.5428 40.5545 31.4823C40.6755 31.4521 40.7965 31.4218 40.9174 31.3916C41.0686 31.3613 41.2198 31.3009 41.371 31.2706C41.492 31.2404 41.6432 31.2101 41.7642 31.1799C42.0061 31.1194 42.2481 31.0287 42.49 30.9682C42.611 30.938 42.7622 30.9077 42.8831 30.8775C43.1251 30.817 43.367 30.7263 43.6089 30.6658C43.7299 30.6355 43.8811 30.6053 44.0021 30.575C44.2743 30.5146 44.5464 30.4238 44.8186 30.3634C45.0606 30.3029 45.3025 30.2121 45.5444 30.0912C45.7259 30.0005 45.9073 29.8795 46.0585 29.7283C46.1493 29.6375 46.2702 29.5468 46.3912 29.4561C46.4214 29.4259 46.4819 29.3956 46.5122 29.3956C46.6936 29.2746 46.9356 29.2746 47.1473 29.3049C47.3892 29.3351 47.6311 29.3956 47.8731 29.4863C48.1755 29.5771 48.4779 29.7283 48.7803 29.8492C48.9315 29.9097 49.0525 29.9702 49.2037 30.0307C49.3852 30.1214 49.5364 30.1819 49.7178 30.2726C49.8993 30.3634 50.111 30.4541 50.2924 30.5146C50.5041 30.6053 50.7158 30.696 50.9275 30.817C51.1392 30.9077 51.3811 31.0287 51.5928 31.1194C51.8348 31.2101 52.0767 31.3311 52.2884 31.4521C52.5606 31.573 52.8025 31.694 53.0747 31.815C53.2561 31.9057 53.4073 31.9662 53.5888 32.0267C53.74 32.0871 53.8912 32.1476 54.0424 32.2384C54.2541 32.3291 54.4356 32.4198 54.6473 32.5105C54.7985 32.571 54.9194 32.6315 55.0706 32.7222C55.1009 32.7525 55.1614 32.7525 55.2219 32.7827C55.3731 32.8432 55.5545 32.9339 55.7057 32.9944C55.8569 33.0549 56.0081 33.1456 56.1594 33.2061C56.3408 33.2968 56.5223 33.3573 56.7037 33.448C56.9456 33.569 57.1876 33.69 57.4295 33.7807C57.5505 33.8412 57.6714 33.8714 57.7622 33.9319C57.9436 34.0226 58.1251 34.0831 58.3065 34.1738C58.3368 34.1738 58.3368 34.1738 58.367 34.2041C58.367 34.2041 58.367 34.2343 58.3368 34.2343C58.0646 34.2948 57.7622 34.3855 57.49 34.446C57.369 34.4763 57.2783 34.5065 57.1573 34.5065C57.0969 34.5065 57.0364 34.5065 56.9456 34.5065C56.8852 34.5065 56.8247 34.4763 56.7642 34.446C56.5827 34.3855 56.4315 34.2948 56.2501 34.2343C56.1896 34.2041 56.0989 34.1738 56.0384 34.1738C55.8569 34.1134 55.6755 34.0529 55.494 33.9924C55.3126 33.9319 55.1311 33.8714 54.9799 33.8109C54.7985 33.7505 54.617 33.6597 54.4356 33.5992C54.2541 33.5388 54.0424 33.4783 53.8307 33.3876C53.6493 33.3271 53.4678 33.2363 53.2864 33.1759C53.2259 33.1456 53.1654 33.1456 53.1049 33.1154C52.8932 33.0549 52.6815 32.9642 52.5001 32.9037C52.3186 32.8432 52.1674 32.7525 51.986 32.692C51.9255 32.6617 51.8348 32.6315 51.7743 32.6315C51.5928 32.571 51.4416 32.5105 51.2602 32.4501C51.0787 32.3896 50.867 32.2988 50.6856 32.2384C50.4739 32.1476 50.2622 32.0871 50.0505 32.0267C49.9295 31.9964 49.8085 31.9359 49.6876 31.9057C49.5364 31.8452 49.4154 31.815 49.2642 31.7545C49.1432 31.7242 49.0223 31.6638 48.9013 31.6335C48.6896 31.573 48.5081 31.4823 48.2964 31.4218C48.0848 31.3311 47.8428 31.3009 47.6009 31.2706C47.3287 31.2404 47.0565 31.2101 46.7844 31.2101C46.7239 31.2101 46.6331 31.1799 46.5727 31.1799C46.4215 31.1799 46.24 31.2101 46.0888 31.2101C45.8469 31.2101 45.5747 31.2404 45.3327 31.2706C45.121 31.3009 44.9094 31.3311 44.7279 31.3613C44.6069 31.3916 44.4557 31.4218 44.3348 31.4521C44.0928 31.5125 43.8509 31.573 43.6089 31.6335C43.367 31.694 43.1553 31.7545 42.9134 31.815C42.7017 31.8755 42.5202 31.9057 42.3085 31.9662C42.0969 32.0267 41.9154 32.0871 41.7037 32.1174C41.492 32.1779 41.2501 32.2384 41.0384 32.2988C40.8267 32.3593 40.615 32.3896 40.4335 32.4501C40.2219 32.5105 39.9799 32.571 39.7682 32.6315C39.6473 32.6617 39.496 32.692 39.3751 32.7222C39.2239 32.7525 39.1029 32.7827 38.9517 32.8432C38.6493 32.9037 38.3771 32.9642 38.0747 33.0549C37.8327 33.1154 37.5908 33.1759 37.3489 33.2363C37.1069 33.2968 36.8348 33.3875 36.5928 33.448C36.4719 33.4783 36.3206 33.5085 36.1997 33.5388C35.9577 33.5992 35.746 33.6597 35.5041 33.7202C35.3831 33.7505 35.2319 33.7807 35.111 33.8109C34.9598 33.8412 34.8085 33.9017 34.6573 33.9319C34.5364 33.9621 34.4154 33.9924 34.2944 34.0226C34.113 34.0831 33.9013 34.1134 33.7198 34.1738C33.5081 34.2343 33.3267 34.2646 33.115 34.3251C32.8731 34.4158 32.6311 34.446 32.3892 34.5367C32.2682 34.567 32.117 34.5972 31.9961 34.6275C31.8751 34.6577 31.7844 34.688 31.6634 34.7182C31.4215 34.7787 31.1795 34.8392 30.9073 34.8996C30.8166 34.8694 30.7561 34.8694 30.6654 34.8694Z" fill="url(#paint7_linear)"/>
<path d="M30.9375 33.236C30.9677 33.2057 30.998 33.1755 31.0282 33.1755C31.2399 33.0243 31.4819 32.9033 31.6935 32.7521C31.9052 32.6311 32.1169 32.4799 32.2984 32.3589C32.5101 32.238 32.752 32.0868 32.9637 31.9658C33.0242 31.9355 33.0847 31.9053 33.1452 31.8448C33.2661 31.7541 33.4476 31.7239 33.5988 31.6634C33.7802 31.6029 33.9919 31.5424 34.2036 31.4819C34.3246 31.4517 34.4153 31.4214 34.5363 31.3912C34.6875 31.3307 34.8387 31.3005 34.9899 31.24C35.1714 31.1795 35.3528 31.119 35.5343 31.0585C35.6552 31.0283 35.7762 30.9678 35.8972 30.9376C36.1089 30.8771 36.3508 30.7864 36.5625 30.7259C36.7137 30.6654 36.8952 30.6351 37.0464 30.5747C37.2581 30.5142 37.4395 30.4235 37.6512 30.363C37.9234 30.2722 38.1956 30.1815 38.4677 30.121C38.7097 30.0606 38.9516 29.9698 39.1633 29.9093C39.4657 29.8186 39.7984 29.6976 40.1008 29.6069C40.373 29.5162 40.6452 29.4557 40.9173 29.365C41.129 29.3045 41.3407 29.2138 41.5524 29.1533C41.6734 29.1231 41.7641 29.0928 41.8851 29.0626C41.9153 29.0626 41.9758 29.0323 42.006 29.0323C42.1875 28.9718 42.3689 28.9114 42.5504 28.8509C42.7319 28.7904 42.9133 28.7299 43.0948 28.6694C43.3367 28.6089 43.5786 28.5182 43.8508 28.4577C43.9718 28.4275 44.0927 28.367 44.2137 28.3368C44.3952 28.2763 44.5766 28.2158 44.7581 28.1856C44.9698 28.1251 45.2117 28.0343 45.3931 27.9436C45.6048 27.8227 45.8165 27.6714 45.998 27.5202C46.119 27.4295 46.2399 27.3085 46.3609 27.2178C46.5423 27.0968 46.754 27.0666 46.9355 27.0968C47.0867 27.1271 47.2379 27.1573 47.3891 27.1876C47.5706 27.2481 47.752 27.3085 47.9335 27.369C48.1452 27.4597 48.3569 27.5505 48.5686 27.6714C48.7802 27.7622 48.9617 27.8831 49.1734 28.0041C49.3246 28.0948 49.506 28.1856 49.6573 28.246C49.8689 28.367 50.0806 28.4577 50.3226 28.5787C50.5948 28.7299 50.8367 28.8509 51.1089 29.0021C51.4113 29.1533 51.7137 29.3347 52.0161 29.486C52.3185 29.6372 52.5907 29.7884 52.8931 29.9396C53.1956 30.0908 53.498 30.242 53.8004 30.3932C54.0726 30.5444 54.3448 30.6956 54.6169 30.8166C54.9194 30.9981 55.252 31.1493 55.5847 31.3005C55.8266 31.4214 56.0685 31.5726 56.3105 31.6936C56.5524 31.8146 56.7944 31.9355 57.0363 32.0565C57.2177 32.1472 57.3992 32.238 57.6109 32.3589C57.7621 32.4497 57.9133 32.5101 58.0645 32.6009C58.0645 32.6009 58.0645 32.6311 58.0948 32.6614C57.8226 32.6916 57.5504 32.7521 57.3085 32.7823C57.1875 32.8126 57.0968 32.8126 56.9758 32.8428C56.8851 32.873 56.7944 32.873 56.7036 32.8126C56.5222 32.7218 56.3407 32.6614 56.1895 32.5706C56.0383 32.5101 55.9173 32.4497 55.7661 32.3892C55.7056 32.3589 55.6452 32.3287 55.5847 32.2985C55.3125 32.1775 55.0403 32.0565 54.7681 31.9658C54.5867 31.8751 54.4052 31.8146 54.2238 31.7239C54.0423 31.6634 53.8911 31.5726 53.7097 31.5122C53.5585 31.4517 53.4073 31.361 53.2863 31.3005C53.1653 31.24 53.0444 31.2097 52.9234 31.1493C52.6815 31.0283 52.4093 30.9073 52.1673 30.8166C51.9859 30.7259 51.7742 30.6654 51.5927 30.5747C51.3508 30.4537 51.1089 30.363 50.8367 30.242C50.5645 30.121 50.2923 30.0001 50.0504 29.8791C49.869 29.7884 49.6875 29.7279 49.506 29.6372C49.3851 29.5767 49.2339 29.5162 49.1129 29.4557C48.9919 29.3952 48.871 29.365 48.75 29.3045C48.5988 29.244 48.4476 29.1835 48.2964 29.1231C48.2056 29.0928 48.1149 29.0626 48.0242 29.0323C47.7823 28.9416 47.5101 28.9114 47.2379 28.8811C46.8448 28.8206 46.4819 28.8206 46.0887 28.8509C45.9073 28.8509 45.7258 28.8811 45.5141 28.9114C45.3024 28.9416 45.0907 28.9718 44.9093 29.0021C44.7581 29.0323 44.6371 29.0626 44.4859 29.0928C44.3044 29.1533 44.1532 29.1835 43.9718 29.244C43.7903 29.3045 43.6089 29.3347 43.4274 29.3952C43.3065 29.4255 43.1552 29.486 43.0343 29.5162C42.8528 29.5767 42.6714 29.6372 42.4597 29.6976C42.2782 29.7581 42.127 29.8186 41.9456 29.8489C41.7036 29.9093 41.4617 29.9698 41.2198 30.0606C41.0081 30.121 40.7964 30.2118 40.5847 30.2722C40.3125 30.363 40.0706 30.4235 39.7984 30.5142C39.5262 30.6049 39.2843 30.6654 39.0121 30.7561C38.8004 30.8166 38.619 30.8771 38.4073 30.9376C38.1956 30.9981 37.9839 31.0585 37.8024 31.119C37.5907 31.1795 37.3488 31.24 37.1371 31.3307C36.8044 31.4517 36.502 31.5424 36.1694 31.6331C35.9879 31.6936 35.8065 31.7541 35.625 31.8146C35.5343 31.8448 35.4133 31.8751 35.3226 31.9053C35.1109 31.9658 34.8992 32.0263 34.7177 32.0868C34.506 32.1472 34.2944 32.238 34.0524 32.2985C33.9315 32.3287 33.8105 32.3589 33.6895 32.3892C33.5081 32.4497 33.3266 32.5101 33.1452 32.5706C33.0242 32.6009 32.9032 32.6311 32.8125 32.6916C32.6008 32.7521 32.3589 32.8428 32.1472 32.9033C32.0262 32.9335 31.9052 32.9638 31.754 33.0243C31.6028 33.0545 31.4516 33.115 31.3004 33.1755C31.2097 33.2057 31.0887 33.236 30.9375 33.236C30.9375 33.2662 30.9375 33.2662 30.9375 33.236Z" fill="url(#paint8_linear)"/>
<path d="M31.1794 31.6942C31.3307 31.6035 31.4516 31.5127 31.6028 31.422C31.7238 31.3313 31.875 31.2406 31.996 31.1498C32.1169 31.0591 32.2682 30.9986 32.3891 30.9079C32.4496 30.8474 32.5403 30.8172 32.6008 30.7567C32.7218 30.666 32.873 30.5752 32.994 30.4845C33.1149 30.424 33.2057 30.3333 33.3266 30.2728C33.4778 30.1518 33.6593 30.0914 33.8105 30.0309C33.9315 29.9704 34.0827 29.9401 34.2036 29.8797C34.4758 29.7889 34.748 29.6982 35.0202 29.5772C35.2319 29.4865 35.4738 29.426 35.6855 29.3353C35.8367 29.2748 36.0182 29.2143 36.1694 29.1539C36.2298 29.1236 36.2903 29.0934 36.3811 29.0934C36.5323 29.0329 36.6835 29.0026 36.8347 28.9422C37.0464 28.8514 37.2581 28.791 37.4698 28.7002C37.6815 28.6095 37.9234 28.549 38.1351 28.4583C38.2561 28.428 38.377 28.3676 38.4678 28.3373C38.5887 28.2768 38.7399 28.2466 38.8609 28.1861C39.0121 28.1256 39.1936 28.0651 39.3448 28.0047C39.5262 27.9442 39.7077 27.8535 39.8891 27.793C39.9496 27.7627 40.0101 27.7627 40.0706 27.7325C40.2823 27.6418 40.5242 27.5813 40.7359 27.4906C40.8871 27.4301 41.0383 27.3696 41.1895 27.3091C41.2803 27.2789 41.3407 27.2486 41.4315 27.2184C41.6129 27.1579 41.8246 27.0672 42.0061 27.0067C42.0665 26.9764 42.127 26.9764 42.1573 26.9462C42.369 26.8555 42.6109 26.795 42.8226 26.7043C42.9436 26.674 43.0645 26.6135 43.1855 26.5833C43.3367 26.5228 43.4879 26.4926 43.6391 26.4321C43.7903 26.3716 43.9718 26.3111 44.123 26.2506C44.2137 26.2204 44.3347 26.1901 44.4254 26.1599C44.6069 26.0994 44.7883 26.0692 44.9698 25.9785C45.0303 25.9482 45.0907 25.918 45.1512 25.918C45.3629 25.8272 45.5444 25.7063 45.7258 25.5853C45.877 25.4946 45.998 25.3736 46.119 25.2526C46.2399 25.1619 46.3609 25.041 46.5121 25.0107C46.6028 24.9805 46.7238 24.9805 46.8145 24.9805C46.996 24.9805 47.2077 25.041 47.3891 25.1014C47.5403 25.1619 47.6915 25.2224 47.873 25.3131C47.994 25.3736 48.1149 25.4341 48.2359 25.4946C48.3871 25.5853 48.5383 25.676 48.7198 25.7668C48.9315 25.8877 49.1432 26.0087 49.3549 26.1297C49.5665 26.2506 49.748 26.3716 49.9597 26.4926C50.0807 26.553 50.2016 26.6438 50.3528 26.7043C50.5948 26.8555 50.8065 26.9764 51.0484 27.1276C51.1694 27.1881 51.2903 27.2789 51.4416 27.3393C51.5625 27.3998 51.6835 27.4905 51.8045 27.5813C51.9557 27.672 52.1069 27.7627 52.2278 27.8232C52.3488 27.9139 52.5 27.9744 52.621 28.0651C52.9536 28.2768 53.3165 28.4885 53.6492 28.67C53.8307 28.791 54.0424 28.8817 54.2238 29.0026C54.4355 29.1236 54.617 29.2446 54.7984 29.3655C54.9496 29.4563 55.1311 29.547 55.2823 29.6377C55.4032 29.7285 55.5545 29.7889 55.6754 29.8797C55.9778 30.0611 56.2803 30.2426 56.5524 30.3938C56.7339 30.5147 56.9456 30.6357 57.127 30.7567C57.2782 30.8474 57.3992 30.9079 57.5504 30.9986C57.6714 31.0591 57.7621 31.1498 57.9133 31.2103C57.8528 31.2103 57.8226 31.2406 57.8226 31.2406C57.5807 31.2406 57.369 31.2708 57.127 31.2708C57.0061 31.2708 56.8549 31.301 56.7339 31.301C56.6432 31.301 56.5524 31.301 56.4617 31.2406C56.3105 31.1801 56.1895 31.0893 56.0686 30.9986C55.9174 30.9079 55.7661 30.8474 55.6149 30.7567C55.494 30.6962 55.3428 30.6357 55.2218 30.545C55.1008 30.4845 54.9496 30.3938 54.8286 30.3333C54.6472 30.2426 54.4657 30.1518 54.3145 30.0611C54.1936 30.0006 54.0726 29.9401 53.9214 29.8494C53.7702 29.7587 53.5887 29.668 53.4375 29.6075C53.2561 29.5168 53.1049 29.426 52.9234 29.3353C52.7117 29.2143 52.4698 29.0934 52.2581 28.9724C52.1069 28.8817 51.9254 28.791 51.744 28.7305C51.5625 28.6397 51.3508 28.549 51.1694 28.4281C50.9879 28.3373 50.8367 28.2466 50.6553 28.1559C50.4436 28.0349 50.2016 27.9139 49.9899 27.8232C49.748 27.7022 49.5061 27.5813 49.2944 27.4301C49.1432 27.3393 48.9617 27.2486 48.8105 27.1881C48.5988 27.0974 48.4174 26.9764 48.2057 26.8857C48.1149 26.8555 48.0242 26.8252 47.9335 26.795C47.8125 26.7647 47.6915 26.7647 47.5706 26.7043C47.2682 26.6135 46.9355 26.6438 46.6331 26.6135C46.5726 26.6135 46.4819 26.6135 46.4214 26.6135C46.1795 26.6438 45.9073 26.6438 45.6653 26.674C45.5141 26.7043 45.3327 26.7345 45.1815 26.7647C45.0303 26.795 44.9093 26.8252 44.7581 26.8555C44.5766 26.916 44.4254 26.9764 44.244 27.0067C44.1532 27.0369 44.0625 27.0672 44.002 27.0974C43.7903 27.1579 43.6089 27.2486 43.3972 27.3091C43.3065 27.3393 43.246 27.3696 43.1553 27.3998C42.9436 27.4603 42.7319 27.551 42.5504 27.6115C42.2782 27.7022 42.0061 27.793 41.7339 27.9139C41.4919 28.0047 41.2803 28.0954 41.0383 28.1861C40.8569 28.2466 40.6754 28.3071 40.494 28.3676C40.3125 28.4281 40.1613 28.4885 39.9798 28.549C39.7379 28.6397 39.4657 28.7305 39.2238 28.8212C39.0121 28.9119 38.8004 28.9724 38.5585 29.0631C38.3468 29.1539 38.1351 29.2143 37.9234 29.2748C37.7117 29.3656 37.4698 29.426 37.2581 29.5168C37.0464 29.6075 36.8347 29.668 36.623 29.7587C36.4718 29.8192 36.2903 29.8797 36.1391 29.9401C36.0484 29.9704 35.9577 30.0006 35.8669 30.0309C35.6553 30.0914 35.4738 30.1821 35.2621 30.2426C35.1411 30.2728 35.0202 30.3333 34.8992 30.3635C34.748 30.424 34.5968 30.4845 34.4456 30.5147C34.2944 30.5752 34.1129 30.6357 33.9617 30.6962C33.871 30.7264 33.8105 30.7567 33.7198 30.7869C33.5081 30.8474 33.3266 30.9381 33.1149 30.9986C33.0544 31.0289 32.994 31.0289 32.9335 31.0591C32.7218 31.1196 32.5101 31.2103 32.2984 31.2708C32.1472 31.3313 32.0262 31.3615 31.875 31.422C31.754 31.4522 31.6331 31.5127 31.5121 31.543C31.4214 31.5732 31.3609 31.6035 31.2702 31.6337C31.2097 31.7244 31.2097 31.7244 31.1794 31.6942C31.1794 31.7244 31.1794 31.7244 31.1794 31.6942Z" fill="url(#paint9_linear)"/>
<path d="M57.7016 29.8495C57.6714 29.8495 57.6411 29.8495 57.6411 29.8495C57.4295 29.8495 57.1875 29.8495 56.9758 29.8495C56.7944 29.8193 56.6129 29.8495 56.4315 29.8193C56.3407 29.8193 56.25 29.7588 56.1895 29.6983C56.0686 29.6076 55.9174 29.5471 55.7964 29.4564C55.6452 29.3656 55.5242 29.2749 55.373 29.2144C55.252 29.154 55.1311 29.0632 55.0403 29.0027C54.8891 28.912 54.7379 28.8213 54.5867 28.7306C54.4657 28.6398 54.3145 28.5794 54.1936 28.4886C54.0726 28.3979 53.9214 28.3072 53.8004 28.2467C53.619 28.1257 53.4375 28.035 53.2561 27.914C53.0444 27.7931 52.8327 27.6419 52.621 27.5209C52.3488 27.3394 52.0766 27.1882 51.7742 27.0068C51.5323 26.8556 51.2903 26.7044 51.0484 26.5531C50.867 26.4322 50.6553 26.3415 50.4738 26.2205C50.3528 26.1298 50.2319 26.0693 50.1109 25.9786C49.9899 25.9181 49.869 25.8273 49.7782 25.7669C49.627 25.6761 49.4758 25.5854 49.3549 25.4947C49.2641 25.4342 49.1432 25.3737 49.0524 25.3132C48.9012 25.2225 48.75 25.1318 48.5686 25.0411C48.3871 24.9201 48.1754 24.7991 47.9637 24.7386C47.873 24.7084 47.752 24.6781 47.6613 24.6479C47.4194 24.5874 47.1774 24.5572 46.9355 24.5572C46.7238 24.5269 46.5121 24.5572 46.2702 24.5572C46.119 24.5572 45.9375 24.5874 45.7863 24.5874C45.6653 24.6177 45.5141 24.6177 45.3932 24.6479C45.2722 24.6781 45.1512 24.7084 45.0303 24.7386C44.8186 24.7991 44.6069 24.8596 44.3952 24.9503C44.2137 25.0411 44.0323 25.1015 43.8206 25.162C43.6694 25.2225 43.4879 25.3132 43.3367 25.3737C43.1553 25.4644 42.9436 25.5249 42.7621 25.6156C42.5807 25.6761 42.3992 25.7669 42.248 25.8273C42.127 25.8878 42.0061 25.9181 41.8851 25.9786C41.6734 26.0693 41.4617 26.16 41.2198 26.2507C40.9476 26.3717 40.6452 26.4927 40.373 26.6136C40.1311 26.7044 39.9194 26.7951 39.6774 26.8858C39.5262 26.9463 39.375 27.0068 39.2238 27.0673C39.1633 27.0975 39.1028 27.0975 39.0726 27.1277C38.8004 27.2487 38.5282 27.3697 38.2561 27.4604C38.0444 27.5511 37.8327 27.6419 37.621 27.7326C37.4395 27.7931 37.2581 27.8838 37.0766 27.9443C36.9254 28.0048 36.8045 28.0652 36.6532 28.1257C36.5625 28.156 36.502 28.1862 36.4113 28.2165C36.2299 28.2769 36.0484 28.3677 35.8972 28.4281C35.8065 28.4584 35.7157 28.4886 35.625 28.5189C35.3528 28.6398 35.0807 28.7306 34.8387 28.8515C34.7178 28.912 34.5968 28.9423 34.4758 29.0027C34.3246 29.0632 34.2036 29.1237 34.0827 29.1842C34.0222 29.2144 33.9617 29.2144 33.9315 29.2447C33.75 29.3052 33.5988 29.3959 33.4174 29.4564C33.2359 29.5169 33.0847 29.6076 32.9032 29.6681C32.8125 29.6983 32.752 29.7286 32.6613 29.7588C32.5403 29.8193 32.4194 29.8495 32.2984 29.91C32.1774 29.9705 32.0262 30.031 31.9053 30.0612C31.8145 30.0915 31.6936 30.1519 31.6028 30.1822C31.5726 30.1822 31.5726 30.1822 31.5424 30.1822C31.6028 30.1217 31.6633 30.0915 31.7238 30.031C31.996 29.8495 32.2379 29.6681 32.5101 29.4866C32.6916 29.3656 32.873 29.2144 33.0545 29.0935C33.2661 28.9423 33.4778 28.7911 33.6895 28.6398C33.8407 28.5491 33.9617 28.4584 34.1432 28.3979C34.3246 28.3374 34.5061 28.2467 34.7178 28.156C34.8992 28.0652 35.1109 28.0048 35.2924 27.914C35.4133 27.8838 35.5041 27.8233 35.625 27.7628C35.8972 27.6419 36.1694 27.5511 36.4416 27.4302C36.5928 27.3697 36.7137 27.3092 36.8649 27.2487C36.9557 27.2185 37.0161 27.1882 37.1069 27.158C37.2278 27.0975 37.3488 27.0673 37.4698 27.0068C37.6512 26.9463 37.8327 26.8556 38.0141 26.7648C38.2258 26.6741 38.4073 26.6136 38.619 26.5229C38.8004 26.4322 39.0121 26.3415 39.1936 26.281C39.375 26.1902 39.5565 26.1298 39.7379 26.0693C39.8891 26.0088 40.0403 25.9483 40.1613 25.8878C40.1916 25.8576 40.252 25.8576 40.3125 25.8273C40.4637 25.7669 40.6149 25.7064 40.7661 25.6459C40.9174 25.5854 41.0383 25.5249 41.1895 25.4644C41.371 25.3737 41.5524 25.3132 41.7339 25.2225C41.9153 25.1318 42.0968 25.0713 42.3085 24.9806C42.4295 24.9503 42.5202 24.8898 42.6411 24.8596C42.7924 24.7991 42.9133 24.7386 43.0645 24.6781C43.2157 24.6177 43.3972 24.5269 43.5484 24.4665C43.7601 24.3757 43.9718 24.285 44.1532 24.2245C44.2742 24.1943 44.3649 24.1338 44.4859 24.1036C44.6371 24.0431 44.7883 23.9826 44.9395 23.9221C45.121 23.8616 45.2722 23.7709 45.4536 23.6802C45.7258 23.529 45.9678 23.3475 46.2097 23.1358C46.3609 23.0148 46.5121 22.8636 46.6633 22.7729C46.6936 22.7427 46.7238 22.7427 46.7843 22.7124C46.996 22.6822 47.1774 22.6822 47.3891 22.7729C47.6311 22.8636 47.8428 22.9544 48.0545 23.0753C48.2359 23.1661 48.4476 23.287 48.5988 23.408C48.7198 23.4987 48.8407 23.5894 48.992 23.6499C49.2339 23.8314 49.4758 23.9826 49.748 24.164C49.869 24.2245 49.9597 24.3152 50.0807 24.3757C50.2016 24.4665 50.3226 24.5572 50.4436 24.6177C50.5343 24.6781 50.6553 24.7689 50.746 24.8294C50.9577 24.9806 51.1996 25.1318 51.4113 25.283C51.5928 25.404 51.7742 25.5249 51.9254 25.6156C52.1069 25.7366 52.2883 25.8576 52.4698 26.0088C52.5605 26.0693 52.6815 26.1298 52.7722 26.2205C52.9839 26.3717 53.1956 26.5229 53.4073 26.6741C53.5282 26.7648 53.6492 26.8253 53.7702 26.9161C53.9516 27.037 54.1331 27.158 54.2843 27.279C54.375 27.3394 54.496 27.3999 54.5867 27.4906C54.7984 27.6419 55.0403 27.7931 55.252 27.9443C55.4335 28.0652 55.6149 28.1862 55.7964 28.3072C55.9778 28.4281 56.1593 28.5491 56.3407 28.7003C56.4315 28.7608 56.492 28.7911 56.5827 28.8515C56.8246 29.0027 57.0665 29.1842 57.3085 29.3354C57.4899 29.4564 57.6714 29.5773 57.8226 29.6681C57.6714 29.789 57.6714 29.8193 57.7016 29.8495Z" fill="url(#paint10_linear)"/>
<path d="M57.5202 28.5788C57.369 28.5486 57.2178 28.5486 57.0666 28.5184C56.9154 28.4881 56.7944 28.4881 56.6432 28.4881C56.5222 28.4881 56.4013 28.4579 56.2803 28.4276C56.2198 28.4276 56.1896 28.3974 56.1593 28.3672C56.0081 28.2764 55.8569 28.1555 55.7057 28.0647C55.5243 27.9438 55.3428 27.7926 55.1613 27.6716C54.8589 27.4599 54.5868 27.2482 54.2843 27.0667C54.1029 26.9458 53.8912 26.7946 53.7097 26.6736C53.5283 26.5526 53.3771 26.4317 53.1956 26.3107C53.0142 26.1897 52.8327 26.0688 52.6513 25.9478C52.5303 25.8571 52.4093 25.7663 52.2884 25.7059C52.0464 25.5547 51.8045 25.3732 51.5928 25.222C51.4416 25.101 51.2601 25.0103 51.1089 24.8893C50.9275 24.7684 50.7763 24.6474 50.5948 24.5264C50.4436 24.4055 50.2924 24.3147 50.1412 24.224C49.99 24.103 49.8085 23.9821 49.6271 23.8913C49.4154 23.7401 49.2339 23.6192 49.0222 23.468C48.8408 23.347 48.6291 23.1958 48.4476 23.0748C48.3267 22.9841 48.2057 22.8934 48.0545 22.8329C47.873 22.7724 47.6916 22.7119 47.5101 22.6514C47.0868 22.5607 46.6331 22.5607 46.2097 22.5607C46.0585 22.5607 45.9073 22.6212 45.7561 22.6212C45.6956 22.6212 45.6351 22.6514 45.5747 22.6514C45.3025 22.6817 45.0605 22.7724 44.8186 22.8631C44.6674 22.9236 44.5162 22.9841 44.365 23.0748C44.2138 23.1353 44.0323 23.226 43.8811 23.2865C43.6694 23.3772 43.488 23.468 43.2763 23.5587C43.0041 23.6797 42.7622 23.8006 42.49 23.9216C42.2783 24.0123 42.0666 24.1333 41.8247 24.224C41.5222 24.345 41.2501 24.4962 40.9779 24.6474C40.7359 24.7684 40.494 24.8893 40.2218 24.9801C39.9497 25.101 39.6775 25.2522 39.4053 25.3732C39.2843 25.4337 39.1634 25.4942 39.0424 25.5244C38.8307 25.6151 38.619 25.7059 38.4376 25.7966C38.2259 25.8873 38.0444 25.978 37.8327 26.0688C37.621 26.1595 37.4093 26.2805 37.1976 26.3712C36.9859 26.4619 36.7742 26.5829 36.5626 26.6736C36.3206 26.7946 36.0787 26.8853 35.867 27.0063C35.5948 27.1272 35.3529 27.2482 35.0807 27.3692C34.7783 27.4901 34.5061 27.6413 34.2037 27.7623C34.0222 27.853 33.8408 27.9135 33.6896 28.0042C33.4476 28.1252 33.2057 28.2462 32.9335 28.3369C32.7521 28.4276 32.5706 28.5184 32.4194 28.5788C32.238 28.6696 32.0867 28.7301 31.9053 28.8208C31.8448 28.851 31.7541 28.8813 31.6936 28.9417C31.6936 28.9417 31.6936 28.9417 31.6936 28.9115C31.7238 28.8813 31.7541 28.851 31.7843 28.8208C31.9053 28.7301 32.0263 28.6696 32.1472 28.5788C32.2984 28.4579 32.4799 28.3369 32.6311 28.2159C32.8126 28.095 32.994 27.9438 33.1452 27.8228C33.2964 27.7018 33.4779 27.5809 33.6291 27.4599C33.7803 27.3692 33.9013 27.2482 34.0525 27.1575C34.0827 27.1272 34.1432 27.097 34.2037 27.097C34.4456 26.976 34.7178 26.8551 34.9597 26.7643C35.1714 26.6736 35.3831 26.5526 35.6251 26.4619C35.8367 26.3712 36.0182 26.2805 36.2299 26.1897C36.5323 26.0385 36.8347 25.8873 37.1372 25.7663C37.3791 25.6454 37.621 25.5547 37.8932 25.4337C38.0444 25.3732 38.1956 25.2825 38.3468 25.222C38.5283 25.1313 38.74 25.0405 38.9214 24.9498C39.0726 24.8893 39.1936 24.7986 39.3448 24.7381C39.5263 24.6474 39.7077 24.5869 39.8589 24.4962C40.1311 24.3752 40.4033 24.224 40.6755 24.103C40.8267 24.0426 40.9779 23.9821 41.1291 23.8913C41.2803 23.8006 41.4618 23.7401 41.613 23.6494C41.7944 23.5587 41.9759 23.4982 42.1573 23.4075C42.3085 23.347 42.4597 23.2563 42.6109 23.1958C42.7924 23.1051 42.9738 23.0143 43.1855 22.9538C43.3065 22.8934 43.4275 22.8329 43.5484 22.7724C43.6089 22.7422 43.6694 22.7119 43.7601 22.6817C44.0021 22.5607 44.244 22.47 44.4859 22.349C44.6976 22.2583 44.9093 22.1676 45.121 22.0466C45.3025 21.9559 45.4839 21.8349 45.6654 21.6837C45.8468 21.5022 46.0585 21.351 46.24 21.1998C46.5122 20.9579 46.8146 20.9276 47.1472 21.0486C47.3892 21.1393 47.6009 21.2603 47.8126 21.3813C47.9335 21.472 48.0545 21.5325 48.1755 21.593C48.2662 21.6534 48.3569 21.7442 48.4779 21.8047C48.5988 21.8954 48.7198 21.9861 48.8408 22.0768C48.9618 22.1676 49.0827 22.2583 49.2037 22.349C49.4456 22.5305 49.6876 22.7119 49.9597 22.9236C50.1412 23.0748 50.3226 23.1958 50.5343 23.347C50.7158 23.468 50.867 23.6192 51.0484 23.7401C51.2904 23.9216 51.5323 24.103 51.7743 24.2845C51.8952 24.3752 52.0464 24.4962 52.1674 24.5869C52.2884 24.6776 52.4396 24.7986 52.5605 24.8893C52.742 25.0103 52.9234 25.1615 53.0747 25.2825C53.3468 25.4942 53.5888 25.6756 53.8609 25.8873C54.1029 26.0688 54.3448 26.2502 54.5868 26.4014C54.9497 26.6736 55.2823 26.9155 55.6452 27.1877C55.9174 27.3994 56.1593 27.5809 56.4315 27.7926C56.6734 27.974 56.8851 28.1555 57.1271 28.3067C57.2783 28.3974 57.3993 28.5184 57.5505 28.6091C57.5202 28.5184 57.5202 28.5184 57.5202 28.5788C57.5505 28.5486 57.5505 28.5486 57.5202 28.5788Z" fill="url(#paint11_linear)"/>
<path d="M57.369 27.3088C57.3387 27.3088 57.2783 27.3088 57.248 27.2786C57.0061 27.2181 56.7641 27.1576 56.5222 27.1274C56.4012 27.0971 56.2803 27.0971 56.1593 27.0367C56.0988 27.0064 56.0383 26.9762 55.9779 26.9459C55.8569 26.8552 55.7359 26.7645 55.615 26.6435C55.373 26.4621 55.1613 26.2806 54.9194 26.0992C54.6775 25.9177 54.4355 25.7363 54.1936 25.5246C54.0424 25.4036 53.8912 25.2826 53.7702 25.1617C53.6795 25.1012 53.5887 25.0407 53.5283 24.95C53.3468 24.7988 53.1956 24.6778 53.0141 24.5266C52.8327 24.4056 52.6815 24.2846 52.5 24.1334C52.3488 24.0125 52.1674 23.8613 52.0162 23.7403C51.865 23.6193 51.7137 23.4984 51.5625 23.4076C51.3811 23.2564 51.1996 23.1354 51.0182 22.9842C50.867 22.8633 50.6855 22.7423 50.5343 22.5911C50.4436 22.5004 50.3529 22.4399 50.2319 22.3492C50.0807 22.2282 49.8992 22.1072 49.748 21.9863C49.5061 21.8048 49.2641 21.5931 48.992 21.3814C48.75 21.2 48.4779 20.9883 48.2359 20.8068C48.115 20.7161 47.994 20.6556 47.8428 20.5951C47.6311 20.5044 47.4194 20.4742 47.2077 20.4137C47.0262 20.3834 46.875 20.3834 46.6936 20.3532C46.5726 20.3532 46.4214 20.3532 46.3004 20.3532C46.0887 20.3834 45.8771 20.4137 45.6956 20.4439C45.5444 20.4742 45.4234 20.4742 45.2722 20.5346C45.0908 20.5951 44.9396 20.6556 44.7883 20.7161C44.7279 20.7463 44.6674 20.7463 44.6069 20.7766C44.4557 20.8673 44.3045 20.9278 44.1533 21.0185C44.002 21.1092 43.8206 21.1697 43.6694 21.2604C43.4577 21.3814 43.246 21.4721 43.0343 21.5931C42.7924 21.7141 42.5807 21.835 42.3387 21.956C42.1573 22.0467 42.0061 22.1375 41.8246 22.2282C41.6432 22.3189 41.492 22.4096 41.3105 22.5004C41.0686 22.6213 40.8569 22.7423 40.6452 22.8633C40.4637 22.954 40.3125 23.0447 40.1311 23.1354C40.0101 23.1959 39.8891 23.2564 39.7682 23.3169C39.6472 23.3774 39.496 23.4681 39.375 23.5286C39.1936 23.6193 39.0121 23.71 38.8307 23.8008C38.5585 23.9217 38.3166 24.0729 38.0444 24.1939C37.8327 24.3149 37.621 24.4359 37.4093 24.5266C37.2581 24.6173 37.1069 24.6778 36.9254 24.7685C36.7742 24.8592 36.623 24.9197 36.4718 25.0104C36.3206 25.1012 36.1694 25.1617 36.0182 25.2524C35.867 25.3431 35.7158 25.4036 35.5343 25.4943C35.2924 25.6153 35.0504 25.7363 34.8387 25.8572C34.5968 25.9782 34.3851 26.0992 34.1734 26.2201C33.9315 26.3411 33.6593 26.4621 33.4174 26.6133C33.2662 26.704 33.115 26.7645 32.9335 26.8552C32.7823 26.9157 32.6613 27.0064 32.5101 27.0669C32.3891 27.1274 32.2682 27.2181 32.1472 27.2786C32.0565 27.3088 31.996 27.3391 31.9053 27.3996C31.9053 27.3996 31.9053 27.3996 31.9053 27.3693C32.0565 27.2484 32.1775 27.1576 32.3287 27.0367C32.6008 26.825 32.873 26.6133 33.1452 26.4016C33.4174 26.1899 33.6593 26.0084 33.9315 25.7967C34.0222 25.706 34.1432 25.6153 34.2339 25.5548C34.3246 25.4943 34.4456 25.4338 34.5363 25.3734C34.6875 25.2826 34.869 25.1919 35.0202 25.1314C35.2016 25.0407 35.4133 24.9197 35.5948 24.829C35.8065 24.708 36.0182 24.6173 36.2299 24.4963C36.3811 24.4056 36.5625 24.3149 36.7137 24.2544C36.8347 24.1939 36.9557 24.1334 37.0766 24.0729C37.2279 23.9822 37.3791 23.9217 37.5303 23.831C37.6815 23.7403 37.8327 23.6798 37.9839 23.5891C38.1351 23.4984 38.2863 23.4379 38.4375 23.3471C38.5887 23.2564 38.74 23.1657 38.8912 23.1052C39.0424 23.0145 39.1936 22.954 39.375 22.8633C39.5262 22.8028 39.6775 22.7121 39.7984 22.6213C40.0404 22.5004 40.252 22.3794 40.494 22.2584C40.6452 22.1677 40.7964 22.077 40.9779 21.9863C41.1291 21.8955 41.2803 21.835 41.4315 21.7746C41.5827 21.7141 41.7339 21.6233 41.8549 21.5326C42.0061 21.4419 42.1875 21.3814 42.3387 21.2907C42.5807 21.1697 42.7924 21.0488 43.0041 20.9278C43.125 20.8673 43.2158 20.8068 43.3367 20.7463C43.6089 20.6254 43.8811 20.4742 44.1533 20.3532C44.3952 20.2322 44.6371 20.1113 44.8791 19.9903C45.0908 19.8996 45.2722 19.7786 45.4537 19.6576C45.6351 19.5367 45.7863 19.3854 45.9375 19.2645C46.119 19.1133 46.2702 18.9621 46.4819 18.8411C46.5424 18.8108 46.6029 18.7806 46.6936 18.7806C46.8448 18.7504 46.996 18.7504 47.117 18.8108C47.2682 18.8713 47.4194 18.9621 47.5404 19.0225C47.7218 19.1435 47.9033 19.2342 48.0847 19.3854C48.2359 19.5064 48.4174 19.6576 48.5686 19.7786C48.7198 19.8996 48.871 20.0205 49.0222 20.1415C49.1734 20.2625 49.3246 20.4137 49.4758 20.5346C49.6271 20.6556 49.7783 20.7766 49.9295 20.9278C50.1109 21.079 50.2621 21.2302 50.4436 21.3512C50.5948 21.4721 50.7158 21.5931 50.867 21.6838C51.0484 21.835 51.1996 21.956 51.3811 22.1072C51.5323 22.2282 51.6533 22.3492 51.8045 22.4701C52.0464 22.6516 52.2581 22.8633 52.5 23.0447C52.7722 23.2867 53.0444 23.4984 53.2863 23.7403C53.4073 23.831 53.5283 23.9217 53.619 24.0125C53.7702 24.1334 53.8912 24.2544 54.0424 24.3754C54.1633 24.4963 54.3146 24.5871 54.4355 24.708C54.617 24.8592 54.7984 25.0104 54.9799 25.1617C55.1916 25.3431 55.4033 25.5246 55.615 25.6758C55.8569 25.8875 56.1291 26.0992 56.371 26.3109C56.5222 26.4318 56.7037 26.583 56.8549 26.704C57.0061 26.9762 57.1875 27.1274 57.369 27.3088Z" fill="url(#paint12_linear)"/>
<path d="M32.0868 26.1897C32.117 26.1595 32.1473 26.1293 32.1775 26.099C32.3892 25.9176 32.6311 25.7361 32.8428 25.5547C32.9941 25.4337 33.115 25.3127 33.2662 25.1918C33.3872 25.101 33.5082 25.0103 33.6291 24.9196C33.7501 24.8289 33.8711 24.7079 34.0223 24.6172C34.2642 24.4055 34.5061 24.1938 34.8086 24.0426C34.9295 23.9821 35.0807 23.8914 35.2017 23.8309C35.4134 23.7099 35.6251 23.5889 35.8368 23.468C36.0787 23.3168 36.3207 23.1656 36.5928 23.0446C36.7743 22.9539 36.9255 22.8329 37.107 22.7422C37.3186 22.6212 37.5001 22.5305 37.7118 22.4095C37.9537 22.2885 38.1654 22.1373 38.4074 22.0164C38.5283 21.9559 38.6493 21.8652 38.8005 21.8047C38.9517 21.7139 39.1332 21.6232 39.2844 21.5325C39.4356 21.4418 39.5566 21.3813 39.7078 21.2906C39.9799 21.1393 40.2521 20.9579 40.5243 20.8067C40.7662 20.6555 41.0082 20.5345 41.2501 20.4135C41.3711 20.3531 41.492 20.2623 41.613 20.2019C41.734 20.1414 41.8549 20.0809 41.9759 19.9902C42.1574 19.8994 42.3086 19.7785 42.49 19.6877C42.6715 19.597 42.8529 19.476 43.0344 19.3853C43.2461 19.2643 43.4275 19.1736 43.6392 19.0527C43.9416 18.8712 44.2743 18.6898 44.5767 18.5083C44.6977 18.4478 44.8186 18.3873 44.9396 18.3268C45.0908 18.2361 45.242 18.1454 45.363 18.0547C45.6049 17.8732 45.8469 17.6918 46.0586 17.4498C46.1795 17.3289 46.3005 17.2381 46.4517 17.1474C46.6634 17.0264 46.8751 16.9962 47.117 17.0869C47.359 17.1777 47.6009 17.3289 47.8126 17.4801C47.9638 17.601 48.1453 17.722 48.2965 17.8732C48.4779 18.0244 48.6291 18.1756 48.8106 18.3268C48.9618 18.4781 49.1432 18.6293 49.2945 18.7805C49.4457 18.9317 49.5969 19.0527 49.7481 19.2039C49.8993 19.3248 50.0203 19.4458 50.1715 19.597C50.3529 19.7785 50.5646 19.9599 50.7461 20.1414C50.867 20.2623 50.988 20.3531 51.0787 20.4438C51.2904 20.6555 51.5021 20.8369 51.7138 21.0486C51.865 21.1696 52.0162 21.3208 52.1372 21.4418C52.2582 21.5627 52.4094 21.6837 52.5303 21.8047C52.6513 21.9256 52.8025 22.0466 52.9235 22.1676C53.0445 22.2885 53.1957 22.4095 53.3166 22.5305C53.4678 22.6817 53.6191 22.8027 53.7703 22.9539C53.9215 23.0748 54.0424 23.1958 54.1936 23.347C54.3449 23.468 54.4658 23.5889 54.617 23.7402C54.738 23.8611 54.8892 23.9821 55.0102 24.1031C55.1311 24.224 55.2521 24.3148 55.3731 24.4357C55.5848 24.6172 55.7662 24.7986 55.9779 24.9801C56.0686 25.0708 56.1896 25.1615 56.2803 25.2523C56.3711 25.3127 56.4315 25.4035 56.5223 25.4639C56.6735 25.5849 56.8247 25.7361 56.9457 25.8571C57.0666 25.9781 57.1876 26.0688 57.3086 26.1897C57.2178 26.22 57.1574 26.1897 57.0666 26.1595C56.9154 26.099 56.7642 26.0688 56.5828 26.0083C56.4013 25.9478 56.2199 25.8873 56.0384 25.8268C56.0082 25.8268 55.9779 25.7966 55.9477 25.7664C55.7965 25.6152 55.615 25.4942 55.4638 25.343C55.1916 25.101 54.9195 24.8591 54.6473 24.6172C54.4961 24.466 54.3449 24.3148 54.1634 24.1938C53.8912 23.9518 53.619 23.7099 53.3469 23.4982C53.1352 23.3168 52.9537 23.1353 52.742 22.9539C52.5001 22.7422 52.2582 22.5305 51.986 22.3188C51.8045 22.1676 51.6231 21.9861 51.4416 21.8349C51.1392 21.5627 50.8368 21.3208 50.5344 21.0486C50.3832 20.9277 50.2622 20.8067 50.111 20.6857C49.9295 20.5043 49.7178 20.3531 49.5061 20.1716C49.3247 20.0204 49.1432 19.8389 48.9316 19.6877C48.8106 19.5668 48.6896 19.4458 48.5384 19.3248C48.357 19.1736 48.2057 19.0224 47.9941 18.9014C47.8731 18.841 47.7521 18.7805 47.6311 18.7502C47.5102 18.72 47.359 18.6595 47.238 18.6595C47.0868 18.6293 46.9356 18.6293 46.7844 18.6293C46.5424 18.6293 46.2703 18.6293 46.0283 18.6595C45.8771 18.6898 45.6957 18.6898 45.5445 18.7502C45.4235 18.8107 45.2723 18.8107 45.1211 18.8712C44.9094 18.9317 44.6977 19.0224 44.5162 19.1434C44.3045 19.2643 44.1231 19.3551 43.9114 19.476C43.6997 19.597 43.488 19.718 43.2763 19.8692C43.1553 19.9297 43.0041 20.0204 42.8832 20.0809C42.7622 20.1414 42.6412 20.2321 42.5203 20.2926C42.3691 20.3833 42.2481 20.4438 42.0969 20.5345C41.8852 20.6555 41.6432 20.8067 41.4316 20.9277C41.3106 20.9881 41.1896 21.0789 41.0384 21.1393C40.9174 21.1998 40.7662 21.2906 40.6453 21.351C40.494 21.4418 40.3428 21.5325 40.1916 21.593C40.0707 21.6535 39.9497 21.7442 39.8287 21.8047C39.7078 21.8652 39.5868 21.9559 39.4658 22.0164C39.3449 22.1071 39.1936 22.1676 39.0727 22.2583C38.9215 22.349 38.74 22.4398 38.5888 22.5305C38.4981 22.591 38.3771 22.6514 38.2864 22.7119C38.1654 22.7724 38.0747 22.8329 37.9537 22.8934C37.742 23.0143 37.5303 23.1353 37.3186 23.2563C37.0767 23.4075 36.8348 23.5285 36.5928 23.6797C36.2299 23.8914 35.867 24.1031 35.5041 24.3148C35.2622 24.466 35.0203 24.6172 34.7481 24.7381C34.5061 24.8591 34.2642 25.0103 34.0525 25.1313C33.7803 25.2825 33.5082 25.4639 33.236 25.6152C33.115 25.6756 32.9638 25.7664 32.8428 25.8268C32.6916 25.9176 32.5707 26.0083 32.4195 26.0688C32.3287 26.099 32.2078 26.1293 32.0868 26.1897C32.117 26.1897 32.0868 26.1897 32.0868 26.1897Z" fill="url(#paint13_linear)"/>
<path d="M32.2985 24.9501C32.3287 24.9198 32.3287 24.8896 32.3589 24.8896C32.5706 24.7081 32.7823 24.5267 33.0243 24.3452C33.1755 24.2243 33.2964 24.1033 33.4174 23.9823C33.4779 23.9218 33.5384 23.8614 33.5989 23.8311C33.7803 23.6799 33.992 23.4985 34.1735 23.3472C34.3247 23.2263 34.4456 23.1355 34.5968 23.0146C34.7178 22.8936 34.869 22.8029 35.0505 22.7122C35.1714 22.6517 35.2622 22.561 35.3831 22.5005C35.5041 22.4097 35.6553 22.319 35.8065 22.2585C35.8973 22.198 36.0182 22.1376 36.1089 22.0468C36.3206 21.9259 36.5323 21.7747 36.7138 21.6537C36.8348 21.5932 36.9255 21.5025 37.0464 21.442C37.1674 21.3513 37.2884 21.2908 37.4093 21.2001C37.5606 21.1093 37.7118 21.0186 37.863 20.8976C38.0747 20.7767 38.2864 20.6255 38.4981 20.5045C38.74 20.3533 39.0122 20.1718 39.2541 20.0206C39.3448 19.9601 39.4658 19.8997 39.5565 19.8392C39.7985 19.688 40.0404 19.5368 40.3126 19.3856C40.5848 19.2041 40.8569 19.0529 41.1291 18.8714C41.371 18.7202 41.6432 18.5388 41.8852 18.3876C42.1876 18.1759 42.5202 17.9944 42.8227 17.7827C43.0646 17.6315 43.3065 17.4803 43.5485 17.2989C43.7904 17.1476 44.0626 16.9964 44.3045 16.815C44.5162 16.6638 44.7581 16.5428 44.9698 16.3916C45.1513 16.2706 45.3025 16.1194 45.4839 15.9985C45.6352 15.8775 45.7561 15.7565 45.9073 15.6356C46.0283 15.5146 46.1795 15.3936 46.3307 15.3029C46.5424 15.1517 46.7843 15.1214 47.0263 15.2122C47.2077 15.2726 47.3589 15.3936 47.5102 15.5146C47.7219 15.6658 47.9335 15.8472 48.1452 16.0589C48.3569 16.2706 48.5686 16.4823 48.7803 16.694C48.992 16.9057 49.2037 17.1174 49.4154 17.3291C49.5666 17.4803 49.6876 17.6013 49.8085 17.7525C49.9295 17.8735 50.0505 17.9642 50.1412 18.0851C50.2924 18.2364 50.4134 18.3876 50.5646 18.5085C50.6856 18.6295 50.8368 18.7807 50.9577 18.9017C51.0787 19.0226 51.1997 19.1436 51.3206 19.2948C51.3811 19.3553 51.4416 19.4158 51.5323 19.4763C51.6231 19.567 51.6835 19.6275 51.7743 19.7182C51.8348 19.7787 51.9255 19.8694 51.986 19.9601C52.0464 20.0206 52.1372 20.1114 52.1977 20.1718C52.3791 20.3533 52.5606 20.5347 52.742 20.7162C52.9537 20.9279 53.1352 21.1093 53.3468 21.321C53.5283 21.5025 53.7098 21.6839 53.8912 21.8351C54.0122 21.9561 54.1634 22.1073 54.2843 22.2585C54.5868 22.561 54.8892 22.8634 55.1614 23.1658C55.5243 23.5287 55.8872 23.8916 56.2501 24.2847C56.4618 24.4964 56.6735 24.7384 56.9154 24.9501C56.9456 24.9803 56.9759 25.0105 57.0061 25.071C56.9759 25.071 56.9456 25.071 56.9456 25.071C56.7037 24.9803 56.4618 24.8593 56.2501 24.7686C56.1291 24.7081 56.0081 24.6476 55.8569 24.6174C55.736 24.5872 55.6452 24.4662 55.5545 24.3755C55.4033 24.2545 55.2823 24.1033 55.1614 23.9823C54.9194 23.7404 54.6775 23.4985 54.4053 23.2565C54.2239 23.0751 54.0424 22.8936 53.8307 22.7122C53.7098 22.5912 53.5585 22.44 53.4376 22.319C53.2864 22.1678 53.1352 22.0166 52.9839 21.8654C52.863 21.7444 52.7118 21.6235 52.5908 21.4722C52.5303 21.4118 52.4698 21.3513 52.4093 21.2908C52.2581 21.1396 52.1372 21.0186 51.986 20.8674C51.865 20.7464 51.744 20.6255 51.5928 20.4743C51.5323 20.4138 51.4718 20.3533 51.4114 20.2928C51.2602 20.1416 51.1089 19.9904 50.9577 19.8694C50.8368 19.7485 50.6856 19.6275 50.5646 19.4763C50.5041 19.4158 50.4134 19.3251 50.3529 19.2646C50.2622 19.1739 50.2017 19.1134 50.111 19.0226C50.0505 18.9622 49.9598 18.8714 49.8993 18.811C49.8388 18.7505 49.7783 18.69 49.6876 18.5993C49.5364 18.4481 49.3852 18.2968 49.2339 18.1456C49.0525 17.9944 48.9013 17.813 48.7198 17.6618C48.5686 17.5408 48.4477 17.3896 48.2964 17.2384C48.115 17.0569 47.9033 16.8755 47.6614 16.7847C47.5102 16.7243 47.3287 16.694 47.1775 16.6335C46.8146 16.5428 46.4819 16.5731 46.119 16.6033C45.8771 16.6335 45.6352 16.694 45.4235 16.7545C45.2723 16.7847 45.121 16.8452 45.0001 16.9057C44.8489 16.9662 44.7279 17.0267 44.6069 17.1174C44.486 17.2081 44.365 17.2686 44.244 17.3291C44.1231 17.3896 44.0021 17.4803 43.8811 17.571C43.7602 17.6618 43.6392 17.7222 43.488 17.813C43.367 17.9037 43.2158 17.9944 43.0948 18.0549C42.9134 18.1759 42.7319 18.2968 42.5505 18.4178C42.2783 18.5993 41.9759 18.7807 41.7037 18.9622C41.5827 19.0529 41.4618 19.1134 41.3408 19.1739C41.1593 19.2948 40.9779 19.4158 40.7964 19.5368C40.6755 19.6275 40.5243 19.7182 40.3731 19.7787C40.1916 19.8997 40.0102 20.0206 39.7985 20.1416C39.6775 20.2323 39.5565 20.2928 39.4356 20.3835C39.3146 20.4743 39.1634 20.565 39.0424 20.6557C38.9214 20.7162 38.8307 20.8069 38.7098 20.8674C38.5585 20.9581 38.4073 21.0489 38.2561 21.1396C38.0747 21.2606 37.8932 21.3815 37.7118 21.4722C37.5908 21.5327 37.4698 21.6235 37.3791 21.7142C37.2581 21.8049 37.1069 21.8654 36.986 21.9561C36.865 22.0468 36.744 22.1073 36.6231 22.1981C36.4416 22.319 36.2299 22.44 36.0485 22.561C35.867 22.6819 35.6856 22.8029 35.5041 22.9239C35.2924 23.0751 35.0505 23.196 34.8388 23.3472C34.7178 23.438 34.5968 23.5287 34.4759 23.5892C34.2944 23.7101 34.113 23.8311 33.9315 23.9218C33.7198 24.073 33.5081 24.194 33.2964 24.3452C33.115 24.4662 32.9033 24.5872 32.7218 24.7081C32.6311 24.7686 32.5102 24.8291 32.4194 24.9198C32.3892 24.9198 32.3589 24.9501 32.2985 24.9501Z" fill="url(#paint14_linear)"/>
<path d="M32.4799 23.7704C32.6916 23.5889 32.9032 23.3772 33.1149 23.1958C33.4174 22.9236 33.7198 22.6514 34.0222 22.3792C34.1432 22.2583 34.2944 22.1373 34.4153 22.0163C34.5363 21.8954 34.6573 21.7744 34.8085 21.6534C34.869 21.593 34.9597 21.5325 35.0504 21.472C35.2621 21.3208 35.4436 21.1998 35.6553 21.0486C35.746 20.9881 35.8367 20.9276 35.9274 20.8672C36.0484 20.7764 36.1996 20.6857 36.3206 20.595C36.502 20.474 36.7137 20.3228 36.8952 20.2018C37.0766 20.0809 37.2278 19.9599 37.4093 19.8389C37.5303 19.7482 37.6815 19.6575 37.8024 19.5667C37.9536 19.4458 38.1351 19.3248 38.2863 19.2341C38.4073 19.1736 38.498 19.0829 38.619 19.0224C38.7399 18.9317 38.8307 18.8712 38.9516 18.7805C39.0726 18.6897 39.1936 18.599 39.3448 18.5385C39.5262 18.4176 39.6774 18.2966 39.8589 18.1756C39.9496 18.1151 40.0403 18.0244 40.1613 17.9639C40.3125 17.8732 40.4335 17.7522 40.5847 17.6615C40.7057 17.5708 40.8266 17.5103 40.9476 17.4498C41.0988 17.3288 41.25 17.2381 41.4012 17.1172C41.5524 16.9962 41.7036 16.9055 41.8549 16.8147C41.9456 16.7543 42.0363 16.6938 42.0968 16.6333C42.1875 16.5728 42.3085 16.5123 42.3992 16.4216C42.5807 16.3006 42.7319 16.2099 42.9133 16.0889C43.1553 15.9377 43.367 15.7865 43.6089 15.6353C43.7903 15.5143 43.9415 15.3934 44.123 15.2724C44.244 15.1817 44.3952 15.0909 44.5161 15.0002C44.7278 14.849 44.9395 14.728 45.1512 14.5466C45.4234 14.3349 45.6956 14.093 45.9375 13.851C46.0585 13.7301 46.1795 13.6393 46.3004 13.5486C46.4516 13.4276 46.6331 13.3369 46.8145 13.3369C46.9657 13.3369 47.0867 13.3974 47.2077 13.4579C47.4799 13.6091 47.6915 13.7905 47.9032 14.0022C48.0847 14.1534 48.2359 14.3349 48.3871 14.5163C48.5686 14.6978 48.7198 14.8793 48.871 15.0607C48.992 15.1817 49.0827 15.3026 49.2036 15.4538C49.3549 15.6051 49.5061 15.7865 49.6573 15.9377C49.8387 16.1192 49.9899 16.3309 50.1714 16.5123C50.2923 16.6635 50.4436 16.7845 50.5645 16.9357C50.6553 17.0567 50.7762 17.1474 50.8669 17.2684C50.9879 17.3893 51.1089 17.5405 51.2298 17.6615C51.4113 17.843 51.5625 18.0547 51.744 18.2361C51.9557 18.478 52.1976 18.72 52.4093 18.9619C52.5 19.0526 52.5907 19.1736 52.6815 19.2643C52.7419 19.3551 52.8327 19.4155 52.8932 19.5063C52.9839 19.597 53.0444 19.6877 53.1351 19.7784C53.2258 19.8994 53.3468 20.0204 53.4375 20.1111C53.6492 20.353 53.8609 20.595 54.0726 20.8369C54.1936 20.9579 54.3145 21.0788 54.4355 21.1998C54.6169 21.3813 54.7682 21.593 54.9496 21.7744C55.1311 21.9861 55.3428 22.1978 55.5242 22.4095C55.6452 22.5305 55.7661 22.6817 55.8871 22.8026C56.0081 22.9236 56.129 23.0748 56.25 23.1958C56.4012 23.3772 56.5524 23.5284 56.7036 23.7099C56.7641 23.8006 56.8548 23.8611 56.9153 23.9518C56.9456 23.9821 56.9456 23.9821 56.9758 24.0123C56.9456 24.0123 56.9456 24.0123 56.9153 24.0123C56.7641 23.9216 56.6129 23.8611 56.4617 23.7704C56.25 23.6494 56.0383 23.5587 55.8266 23.4377C55.7359 23.3772 55.6149 23.3167 55.5544 23.226C55.3125 22.9538 55.0403 22.6817 54.7984 22.4095C54.6169 22.228 54.4355 22.0163 54.2843 21.8349C54.1633 21.6837 54.0121 21.5627 53.8911 21.4417C53.6492 21.1696 53.4375 20.9276 53.1956 20.6555C53.0746 20.5345 52.9536 20.4135 52.8629 20.2926C52.7419 20.1413 52.5907 19.9901 52.4698 19.8692C52.3488 19.7482 52.2278 19.597 52.0766 19.476C51.9859 19.3853 51.8952 19.2946 51.8044 19.1736C51.623 18.9922 51.4415 18.7805 51.2601 18.599C51.1391 18.4478 51.0182 18.3268 50.8669 18.1756C50.746 18.0547 50.625 17.9034 50.4738 17.7825C50.3831 17.6615 50.2621 17.5708 50.1714 17.4498C49.9597 17.2079 49.7178 16.9659 49.5061 16.724C49.3549 16.5426 49.1734 16.3611 49.0222 16.1797C48.75 15.8772 48.4778 15.6051 48.2057 15.3026C48.0847 15.1514 47.9032 15.0607 47.752 15.0002C47.4799 14.8793 47.2077 14.8188 46.9355 14.8188C46.875 14.8188 46.7843 14.7885 46.7238 14.7885C46.5121 14.8188 46.3004 14.8188 46.0887 14.849C46.0585 14.849 46.0585 14.849 46.0282 14.849C45.877 14.8793 45.7258 14.9095 45.5746 14.9397C45.2419 15.0607 44.9093 15.2119 44.6069 15.3934C44.3952 15.5446 44.1835 15.6958 44.002 15.8168C43.6996 16.0284 43.3669 16.2401 43.0645 16.4518C42.7319 16.6938 42.369 16.9357 42.0363 17.1776C41.8246 17.3288 41.5827 17.4801 41.3407 17.6313C41.0383 17.843 40.7661 18.0244 40.494 18.2361C40.252 18.3873 40.0101 18.5688 39.7984 18.72C39.5565 18.9014 39.3145 19.0829 39.0726 19.2341C38.8609 19.3853 38.6492 19.5063 38.4678 19.6575C38.2561 19.8087 38.0746 19.9297 37.8932 20.0809C37.6815 20.2321 37.5 20.353 37.2883 20.5043C37.1069 20.6252 36.8952 20.7462 36.7137 20.8974C36.5323 21.0184 36.3811 21.1393 36.1996 21.2603C36.0786 21.351 35.9577 21.4417 35.8065 21.5022C35.6553 21.6232 35.4738 21.7442 35.3226 21.8651C35.1109 22.0163 34.9295 22.1373 34.7178 22.2885C34.5968 22.3792 34.5061 22.4397 34.3851 22.5305C34.1432 22.7119 33.871 22.8934 33.6291 23.0748C33.5081 23.1655 33.3871 23.2563 33.2661 23.347C33.0847 23.468 32.9335 23.5889 32.752 23.7099C32.6311 23.6797 32.5706 23.7401 32.4799 23.7704C32.5101 23.7704 32.5101 23.7704 32.4799 23.7704Z" fill="url(#paint15_linear)"/>
<path d="M18.2359 58.7603C18.2359 58.6998 18.2964 58.5789 18.5988 58.3067L22.5 54.5869H19.9294L16.8145 57.6716C16.5726 57.9135 16.4516 58.1252 16.3911 58.3067V54.5869H14.3951V63.1152H16.3911V59.1837C16.4818 59.3954 16.633 59.6676 16.9355 59.97L20.3226 63.1152H22.9536L18.6895 59.3047C18.5685 59.2139 18.2359 58.9115 18.2359 58.7603Z" fill="#231F20"/>
<path d="M28.9113 54.5869H25.1008C24.6472 54.5869 24.2843 54.7079 24.0121 54.9801C23.6794 55.3127 23.6794 55.7361 23.6794 56.0385V63.1152H25.6754V60.2724H29.2137C29.7278 60.2724 30.2419 60.1212 30.6048 59.8188C31.3911 59.1837 31.3911 57.853 31.3911 57.4297C31.3911 56.6736 31.3004 55.7361 30.6956 55.1313C30.121 54.5869 29.3649 54.5869 28.9113 54.5869ZM29.3347 57.4297C29.3347 57.9135 29.2742 58.216 29.123 58.3672C28.9415 58.5789 28.6089 58.5789 28.3065 58.5789H25.6754V56.5224C25.6754 56.4014 25.6754 56.3409 25.7057 56.3107C25.7359 56.2805 25.7661 56.2805 25.8266 56.2805H28.3367C28.5182 56.2805 28.9113 56.2805 29.0927 56.4922C29.3347 56.7039 29.3347 57.2482 29.3347 57.4297Z" fill="#231F20"/>
<path d="M34.6875 61.3914C34.6875 61.3914 34.6573 61.3309 34.6573 61.2704V59.6373H39.4355V57.9438H34.6573V56.5526C34.6573 56.4619 34.6573 56.3712 34.7177 56.3409C34.7782 56.2805 34.8689 56.2805 34.9597 56.2805H39.5565V54.5869H34.1734C33.9314 54.5869 33.3871 54.5869 33.0242 54.9801C32.8125 55.222 32.6915 55.5849 32.6915 55.978V61.6635C32.6915 62.0567 32.7218 62.4801 33.0544 62.7825C33.3871 63.1152 33.7802 63.1152 34.1431 63.1152H39.6169V61.4216H35.0806C34.8387 61.4216 34.7177 61.4216 34.6875 61.3914Z" fill="#231F20"/>
<path d="M45.3326 54.4961C44.5161 54.4961 44.1229 54.7683 43.7903 55.5546L40.6149 63.115H42.7318L43.5483 61.0888H47.0866L47.9032 63.115H50.0201L46.8447 55.5546C46.5725 54.7985 46.1189 54.4961 45.3326 54.4961ZM46.5121 59.5163H44.1532L45.3326 56.5525L46.5121 59.5163Z" fill="#231F20"/>
<path d="M48.9012 56.2805H52.0464V63.1152H54.0424V56.2805H57.1875V54.5869H48.9012V56.2805Z" fill="#231F20"/>
<path d="M62.2076 54.4961C61.1794 54.4961 59.8185 54.4961 58.8508 55.4034C57.9133 56.2804 57.8528 57.6413 57.8528 58.8509C57.8528 59.7884 57.8528 61.3308 58.8508 62.2985C59.8185 63.2058 61.2701 63.2058 62.2076 63.2058C63.1149 63.2058 64.6572 63.2058 65.5947 62.2985C66.5625 61.3308 66.5625 59.607 66.5625 58.8509C66.5625 57.7017 66.4415 56.2804 65.5947 55.4034C64.6572 54.4961 63.1754 54.4961 62.2076 54.4961ZM59.879 58.8509C59.879 57.5203 60.1209 57.0667 60.3326 56.7642C60.7862 56.2199 61.4213 56.1896 62.1774 56.1896C62.8729 56.1896 63.629 56.2199 64.0524 56.7642C64.3548 57.1574 64.506 57.8227 64.506 58.8509C64.506 59.8489 64.3548 60.5445 64.0524 60.9074C63.629 61.4517 62.9334 61.5122 62.1774 61.5122C61.2399 61.5122 60.7258 61.4215 60.3326 60.9074C60.0302 60.5142 59.879 59.8792 59.879 58.8509Z" fill="#231F20"/>
<path d="M74.9395 55.1313C74.3649 54.5869 73.6089 54.5869 73.1855 54.5869H69.375C68.9214 54.5869 68.5585 54.7079 68.2863 54.9801C67.9536 55.3127 67.9536 55.7361 67.9536 56.0385V63.1152H69.9496V60.2724H73.4879C74.002 60.2724 74.5161 60.1212 74.879 59.8188C75.6653 59.1837 75.6653 57.853 75.6653 57.4297C75.6351 56.6736 75.5443 55.7059 74.9395 55.1313ZM73.5786 57.4297C73.5786 57.9135 73.5181 58.216 73.3669 58.3672C73.1855 58.5789 72.8528 58.5789 72.5504 58.5789H69.9193V56.5224C69.9193 56.4014 69.9193 56.3409 69.9496 56.3107C69.9798 56.2805 70.0101 56.2805 70.0705 56.2805H72.5806C72.7621 56.2805 73.1552 56.2805 73.3367 56.4922C73.5786 56.7039 73.5786 57.2482 73.5786 57.4297Z" fill="#231F20"/>
<path d="M37.5302 70.7055H33.9616V69.2841C33.9616 69.1329 33.9919 69.0724 33.9919 69.0724C34.0221 69.0724 34.0524 69.0422 34.2641 69.0422H39.2237V67.3486H33.2661C32.752 67.3486 32.4495 67.5603 32.2681 67.7115C31.9657 68.0442 31.9354 68.4676 31.9354 68.7398V74.5462C31.9354 74.8184 31.9657 75.151 32.2076 75.4535C32.4495 75.7256 32.7822 75.8466 33.2056 75.8466H37.5604C38.4374 75.8466 38.9213 75.4535 39.133 75.2418C39.4657 74.8486 39.6169 74.2135 39.6169 73.276C39.6169 72.399 39.4657 71.7942 39.1633 71.3708C38.7701 70.9474 38.2258 70.7055 37.5302 70.7055ZM37.5604 73.276C37.5604 73.4877 37.5604 73.8506 37.379 74.0019C37.2278 74.1531 37.0161 74.1531 36.7439 74.1531H34.2338C33.9919 74.1531 33.9314 74.1228 33.9314 74.1228C33.9314 74.1228 33.9012 74.0623 33.9012 73.7902V72.3688H36.7137C36.9556 72.3688 37.1673 72.3688 37.3185 72.52C37.5302 72.7015 37.5604 72.9736 37.5604 73.276Z" fill="#231F20"/>
<path d="M57.3084 74.1832L54.6774 68.2558C54.375 67.5602 53.9213 67.2578 53.1653 67.2578C52.2278 67.2578 51.8951 67.7417 51.6532 68.2558L48.9919 74.1832H48.2358V75.8768H58.0645V74.1832H57.3084ZM51.0786 74.1832L53.1653 69.3747L55.252 74.1832H51.0786Z" fill="#231F20"/>
<path d="M47.0261 67.3486L44.7278 71.9454L42.3386 67.3486H40.131L43.6995 73.8507L42.5806 75.8769H44.758L49.2338 67.3486H47.0261Z" fill="#231F20"/>
<path fill-rule="evenodd" clip-rule="evenodd" d="M0 45C0 69.8589 20.1411 90 45 90C69.8589 90 90 69.8589 90 45C90 20.1411 69.8589 0 45 0C20.1411 0 0 20.1411 0 45ZM45 2.26815C68.5887 2.26815 87.7318 21.4113 87.7318 45C87.7318 68.5887 68.5887 87.7318 45 87.7318C21.4113 87.7318 2.26815 68.6189 2.26815 45C2.26815 21.381 21.4113 2.26815 45 2.26815Z" fill="#EC1C24"/>
<defs>
<linearGradient id="paint0_linear" x1="28.7291" y1="46.1506" x2="59.8837" y2="46.1506" gradientUnits="userSpaceOnUse">
<stop offset="0.2674" stop-color="#EC1C24"/>
<stop offset="0.2724" stop-color="#E81C24"/>
<stop offset="0.3574" stop-color="#AD1D23"/>
<stop offset="0.4393" stop-color="#7C1E22"/>
<stop offset="0.5161" stop-color="#551E21"/>
<stop offset="0.5865" stop-color="#3A1F20"/>
<stop offset="0.6485" stop-color="#291F20"/>
<stop offset="0.6952" stop-color="#231F20"/>
</linearGradient>
<linearGradient id="paint1_linear" x1="32.6814" y1="17.3039" x2="56.7497" y2="17.3039" gradientUnits="userSpaceOnUse">
<stop offset="0.2674" stop-color="#EC1C24"/>
<stop offset="0.2724" stop-color="#E81C24"/>
<stop offset="0.3574" stop-color="#AD1D23"/>
<stop offset="0.4393" stop-color="#7C1E22"/>
<stop offset="0.5161" stop-color="#551E21"/>
<stop offset="0.5865" stop-color="#3A1F20"/>
<stop offset="0.6485" stop-color="#291F20"/>
<stop offset="0.6952" stop-color="#231F20"/>
</linearGradient>
<linearGradient id="paint2_linear" x1="29.0807" y1="43.238" x2="59.569" y2="43.238" gradientUnits="userSpaceOnUse">
<stop offset="0.2674" stop-color="#EC1C24"/>
<stop offset="0.2724" stop-color="#E81C24"/>
<stop offset="0.3574" stop-color="#AD1D23"/>
<stop offset="0.4393" stop-color="#7C1E22"/>
<stop offset="0.5161" stop-color="#551E21"/>
<stop offset="0.5865" stop-color="#3A1F20"/>
<stop offset="0.6485" stop-color="#291F20"/>
<stop offset="0.6952" stop-color="#231F20"/>
</linearGradient>
<linearGradient id="paint3_linear" x1="29.4416" y1="40.7797" x2="59.2953" y2="40.7797" gradientUnits="userSpaceOnUse">
<stop offset="0.2674" stop-color="#EC1C24"/>
<stop offset="0.2724" stop-color="#E81C24"/>
<stop offset="0.3574" stop-color="#AD1D23"/>
<stop offset="0.4393" stop-color="#7C1E22"/>
<stop offset="0.5161" stop-color="#551E21"/>
<stop offset="0.5865" stop-color="#3A1F20"/>
<stop offset="0.6485" stop-color="#291F20"/>
<stop offset="0.6952" stop-color="#231F20"/>
</linearGradient>
<linearGradient id="paint4_linear" x1="29.7503" y1="38.464" x2="59.0512" y2="38.464" gradientUnits="userSpaceOnUse">
<stop offset="0.2674" stop-color="#EC1C24"/>
<stop offset="0.2724" stop-color="#E81C24"/>
<stop offset="0.3574" stop-color="#AD1D23"/>
<stop offset="0.4393" stop-color="#7C1E22"/>
<stop offset="0.5161" stop-color="#551E21"/>
<stop offset="0.5865" stop-color="#3A1F20"/>
<stop offset="0.6485" stop-color="#291F20"/>
<stop offset="0.6952" stop-color="#231F20"/>
</linearGradient>
<linearGradient id="paint5_linear" x1="30.0985" y1="36.2378" x2="58.7894" y2="36.2378" gradientUnits="userSpaceOnUse">
<stop offset="0.2674" stop-color="#EC1C24"/>
<stop offset="0.2724" stop-color="#E81C24"/>
<stop offset="0.3574" stop-color="#AD1D23"/>
<stop offset="0.4393" stop-color="#7C1E22"/>
<stop offset="0.5161" stop-color="#551E21"/>
<stop offset="0.5865" stop-color="#3A1F20"/>
<stop offset="0.6485" stop-color="#291F20"/>
<stop offset="0.6952" stop-color="#231F20"/>
</linearGradient>
<linearGradient id="paint6_linear" x1="30.382" y1="34.1271" x2="58.5231" y2="34.1271" gradientUnits="userSpaceOnUse">
<stop offset="0.2674" stop-color="#EC1C24"/>
<stop offset="0.2724" stop-color="#E81C24"/>
<stop offset="0.3574" stop-color="#AD1D23"/>
<stop offset="0.4393" stop-color="#7C1E22"/>
<stop offset="0.5161" stop-color="#551E21"/>
<stop offset="0.5865" stop-color="#3A1F20"/>
<stop offset="0.6485" stop-color="#291F20"/>
<stop offset="0.6952" stop-color="#231F20"/>
</linearGradient>
<linearGradient id="paint7_linear" x1="30.664" y1="32.1082" x2="58.3324" y2="32.1082" gradientUnits="userSpaceOnUse">
<stop offset="0.2674" stop-color="#EC1C24"/>
<stop offset="0.2724" stop-color="#E81C24"/>
<stop offset="0.3574" stop-color="#AD1D23"/>
<stop offset="0.4393" stop-color="#7C1E22"/>
<stop offset="0.5161" stop-color="#551E21"/>
<stop offset="0.5865" stop-color="#3A1F20"/>
<stop offset="0.6485" stop-color="#291F20"/>
<stop offset="0.6952" stop-color="#231F20"/>
</linearGradient>
<linearGradient id="paint8_linear" x1="30.9244" y1="30.1863" x2="58.1078" y2="30.1863" gradientUnits="userSpaceOnUse">
<stop offset="0.2674" stop-color="#EC1C24"/>
<stop offset="0.2724" stop-color="#E81C24"/>
<stop offset="0.3574" stop-color="#AD1D23"/>
<stop offset="0.4393" stop-color="#7C1E22"/>
<stop offset="0.5161" stop-color="#551E21"/>
<stop offset="0.5865" stop-color="#3A1F20"/>
<stop offset="0.6485" stop-color="#291F20"/>
<stop offset="0.6952" stop-color="#231F20"/>
</linearGradient>
<linearGradient id="paint9_linear" x1="31.1739" y1="28.3359" x2="57.9373" y2="28.3359" gradientUnits="userSpaceOnUse">
<stop offset="0.2674" stop-color="#EC1C24"/>
<stop offset="0.2724" stop-color="#E81C24"/>
<stop offset="0.3574" stop-color="#AD1D23"/>
<stop offset="0.4393" stop-color="#7C1E22"/>
<stop offset="0.5161" stop-color="#551E21"/>
<stop offset="0.5865" stop-color="#3A1F20"/>
<stop offset="0.6485" stop-color="#291F20"/>
<stop offset="0.6952" stop-color="#231F20"/>
</linearGradient>
<linearGradient id="paint10_linear" x1="31.4172" y1="26.5495" x2="57.7079" y2="26.5495" gradientUnits="userSpaceOnUse">
<stop offset="0.2674" stop-color="#EC1C24"/>
<stop offset="0.2724" stop-color="#E81C24"/>
<stop offset="0.3574" stop-color="#AD1D23"/>
<stop offset="0.4393" stop-color="#7C1E22"/>
<stop offset="0.5161" stop-color="#551E21"/>
<stop offset="0.5865" stop-color="#3A1F20"/>
<stop offset="0.6485" stop-color="#291F20"/>
<stop offset="0.6952" stop-color="#231F20"/>
</linearGradient>
<linearGradient id="paint11_linear" x1="31.649" y1="24.8396" x2="57.5437" y2="24.8396" gradientUnits="userSpaceOnUse">
<stop offset="0.2674" stop-color="#EC1C24"/>
<stop offset="0.2724" stop-color="#E81C24"/>
<stop offset="0.3574" stop-color="#AD1D23"/>
<stop offset="0.4393" stop-color="#7C1E22"/>
<stop offset="0.5161" stop-color="#551E21"/>
<stop offset="0.5865" stop-color="#3A1F20"/>
<stop offset="0.6485" stop-color="#291F20"/>
<stop offset="0.6952" stop-color="#231F20"/>
</linearGradient>
<linearGradient id="paint12_linear" x1="31.8653" y1="23.1832" x2="57.3674" y2="23.1832" gradientUnits="userSpaceOnUse">
<stop offset="0.2674" stop-color="#EC1C24"/>
<stop offset="0.2724" stop-color="#E81C24"/>
<stop offset="0.3574" stop-color="#AD1D23"/>
<stop offset="0.4393" stop-color="#7C1E22"/>
<stop offset="0.5161" stop-color="#551E21"/>
<stop offset="0.5865" stop-color="#3A1F20"/>
<stop offset="0.6485" stop-color="#291F20"/>
<stop offset="0.6952" stop-color="#231F20"/>
</linearGradient>
<linearGradient id="paint13_linear" x1="32.0941" y1="21.5814" x2="57.2053" y2="21.5814" gradientUnits="userSpaceOnUse">
<stop offset="0.2674" stop-color="#EC1C24"/>
<stop offset="0.2724" stop-color="#E81C24"/>
<stop offset="0.3574" stop-color="#AD1D23"/>
<stop offset="0.4393" stop-color="#7C1E22"/>
<stop offset="0.5161" stop-color="#551E21"/>
<stop offset="0.5865" stop-color="#3A1F20"/>
<stop offset="0.6485" stop-color="#291F20"/>
<stop offset="0.6952" stop-color="#231F20"/>
</linearGradient>
<linearGradient id="paint14_linear" x1="32.2937" y1="20.0774" x2="57.0368" y2="20.0774" gradientUnits="userSpaceOnUse">
<stop offset="0.2674" stop-color="#EC1C24"/>
<stop offset="0.2724" stop-color="#E81C24"/>
<stop offset="0.3574" stop-color="#AD1D23"/>
<stop offset="0.4393" stop-color="#7C1E22"/>
<stop offset="0.5161" stop-color="#551E21"/>
<stop offset="0.5865" stop-color="#3A1F20"/>
<stop offset="0.6485" stop-color="#291F20"/>
<stop offset="0.6952" stop-color="#231F20"/>
</linearGradient>
<linearGradient id="paint15_linear" x1="32.4927" y1="18.6628" x2="56.9193" y2="18.6628" gradientUnits="userSpaceOnUse">
<stop offset="0.2674" stop-color="#EC1C24"/>
<stop offset="0.2724" stop-color="#E81C24"/>
<stop offset="0.3574" stop-color="#AD1D23"/>
<stop offset="0.4393" stop-color="#7C1E22"/>
<stop offset="0.5161" stop-color="#551E21"/>
<stop offset="0.5865" stop-color="#3A1F20"/>
<stop offset="0.6485" stop-color="#291F20"/>
<stop offset="0.6952" stop-color="#231F20"/>
</linearGradient>
</defs>
</svg>
