<svg width="14" height="15" viewBox="0 0 14 15" fill="none" xmlns="http://www.w3.org/2000/svg">
<path d="M10.8919 14.2728C10.78 14.2733 10.6696 14.2459 10.5699 14.1928L6.99993 12.251L3.42993 14.1928C3.31401 14.2561 3.18331 14.2845 3.05269 14.2744C2.92207 14.2644 2.79677 14.2165 2.69104 14.1362C2.5853 14.056 2.50337 13.9464 2.45456 13.8202C2.40576 13.6939 2.39203 13.5559 2.41493 13.4219L3.11493 9.32737L0.230931 6.41828C0.140952 6.32499 0.0771216 6.20801 0.0462909 6.07988C0.0154602 5.95175 0.0187929 5.81732 0.0559314 5.69101C0.0965034 5.56176 0.171134 5.44691 0.271356 5.35949C0.371578 5.27207 0.493378 5.21559 0.622931 5.19646L4.61293 4.59283L6.36993 0.861919C6.42726 0.738966 6.51675 0.635257 6.62817 0.562705C6.73959 0.490137 6.86843 0.45166 6.99993 0.45166C7.13143 0.45166 7.26027 0.490137 7.3717 0.562705C7.48311 0.635257 7.57261 0.738966 7.62993 0.861919L9.40793 4.58556L13.3979 5.18919C13.5275 5.20832 13.6493 5.2648 13.7495 5.35222C13.8497 5.43964 13.9244 5.55449 13.9649 5.68374C14.0021 5.81005 14.0054 5.94448 13.9746 6.07261C13.9437 6.20074 13.8799 6.31772 13.7899 6.41101L10.9059 9.3201L11.6059 13.4146C11.6309 13.5509 11.6178 13.6919 11.5682 13.8208C11.5186 13.9496 11.4345 14.061 11.3259 14.1419C11.1992 14.2341 11.0465 14.2802 10.8919 14.2728Z" fill="#AB9060"/>
</svg>
